<?xml version="1.0" standalone="no"?>
<!DOCTYPE svg PUBLIC "-//W3C//DTD SVG 20010904//EN"
 "http://www.w3.org/TR/2001/REC-SVG-20010904/DTD/svg10.dtd">
<svg version="1.0" xmlns="http://www.w3.org/2000/svg"
 width="429.000000pt" height="488.000000pt" viewBox="0 0 429.000000 488.000000"
 preserveAspectRatio="xMidYMid meet">
<metadata>
Created by potrace 1.16, written by Peter Selinger 2001-2019
</metadata>
<g transform="translate(0.000000,488.000000) scale(0.100000,-0.100000)"
fill="#000000" stroke="none">
<path d="M2230 4767 c-58 -16 -84 -34 -121 -85 -73 -99 -46 -241 60 -313 49
-34 152 -39 208 -10 127 64 162 233 71 337 -58 66 -140 93 -218 71z"/>
<path d="M2205 4284 c-84 -31 -134 -108 -135 -207 0 -124 92 -217 215 -217
125 0 209 88 210 221 0 56 -5 73 -30 115 -54 88 -161 124 -260 88z"/>
<path d="M2940 3991 l0 -139 83 -11 c446 -64 769 -233 875 -459 23 -49 27 -70
27 -152 0 -131 -25 -184 -143 -300 -73 -71 -104 -94 -192 -138 -58 -29 -154
-70 -215 -91 l-110 -39 -2 -853 -3 -854 105 -125 c58 -69 110 -133 116 -142 9
-17 -51 -18 -1216 -18 l-1225 0 0 96 0 95 -98 -7 c-110 -8 -102 -2 -159 -114
l-38 -75 -3 -312 -3 -313 1500 0 1501 0 0 324 0 323 -110 121 -110 120 0 769
0 769 58 28 c158 78 343 224 439 349 84 109 163 315 163 426 0 109 -62 261
-151 369 -108 131 -335 269 -584 355 -104 36 -472 137 -499 137 -3 0 -6 -62
-6 -139z m307 -3496 c26 -36 51 -65 54 -65 3 0 17 27 32 60 21 50 30 60 50 60
13 0 45 3 70 6 l45 6 -59 -118 c-52 -104 -72 -163 -95 -281 -4 -20 -11 -23
-50 -23 -27 0 -46 5 -48 12 -2 7 -11 48 -21 91 -16 71 -41 133 -89 212 -18 30
-18 30 10 77 33 54 31 55 101 -37z m-1707 -85 l0 -150 90 0 91 0 -3 -57 -3
-58 -147 -3 -146 -3 -8 78 c-7 76 0 311 10 320 7 7 66 21 94 22 22 1 22 0 22
-149z m530 81 l0 -69 56 -4 c31 -1 58 -1 60 1 2 2 4 33 4 68 l0 63 60 0 60 0
0 -199 c0 -224 5 -211 -82 -211 l-38 0 0 80 0 80 -60 0 -59 0 -3 -77 -3 -78
-60 0 -60 0 0 192 c0 105 3 194 7 198 8 9 64 23 96 24 21 1 22 -3 22 -68z
m580 -48 c41 -118 99 -305 95 -311 -1 -1 -45 13 -98 31 l-95 35 -96 -34 c-72
-25 -96 -30 -96 -19 0 26 70 257 101 330 l30 74 47 4 c26 2 52 4 58 5 7 1 31
-51 54 -115z m-1300 88 c0 -10 3 -33 6 -50 l7 -31 -97 0 c-96 0 -96 0 -96 -25
0 -24 2 -25 75 -25 70 0 75 -1 81 -24 3 -13 4 -35 2 -47 -3 -23 -8 -24 -80
-27 -58 -2 -78 -6 -78 -17 0 -7 -3 -21 -6 -30 -6 -15 3 -16 92 -14 l99 3 3
-46 c3 -44 2 -46 -29 -52 -17 -3 -89 -6 -160 -6 l-129 0 0 205 0 205 155 0
c145 0 155 -1 155 -19z m1755 -8 c-28 -44 -53 -69 -91 -89 l-34 -19 0 -85 c0
-47 -3 -109 -6 -137 l-7 -53 -58 0 -59 0 0 150 0 149 -57 3 -58 3 -3 53 -3 52
197 0 196 0 -17 -27z"/>
<path d="M1430 4090 c-394 -89 -720 -256 -894 -458 -55 -65 -119 -192 -135
-270 -32 -153 9 -313 124 -488 94 -141 266 -285 462 -387 l63 -32 0 -742 0
-743 990 0 990 0 0 263 c0 144 3 515 7 825 l6 563 -129 -3 -129 -3 -3 -677 -2
-678 -110 0 -110 0 0 503 c0 536 -4 587 -50 678 -80 159 -260 259 -464 259
-155 0 -280 -49 -384 -150 -104 -101 -126 -179 -126 -460 l-1 -205 125 0 125
0 1 150 c2 229 28 296 141 351 141 70 327 -3 362 -141 7 -29 11 -204 11 -514
l0 -471 -500 0 -500 0 -2 701 -3 701 -105 38 c-151 54 -213 83 -306 145 -293
195 -333 476 -99 693 83 76 187 140 311 189 94 38 275 86 384 103 41 6 90 13
108 16 l32 5 0 134 0 135 -32 -1 c-18 0 -89 -13 -158 -29z"/>
<path d="M2139 3763 l-46 -4 -7 -52 c-3 -29 -6 -67 -6 -84 l0 -33 -115 0 -115
0 0 -140 0 -140 548 0 c301 0 610 -3 688 -7 l141 -6 -8 -51 c-4 -28 -10 -72
-14 -98 l-6 -48 -900 0 -900 0 -24 25 c-22 21 -25 33 -25 99 l0 74 95 7 95 7
0 144 c0 97 -4 144 -11 144 -29 0 -180 -45 -235 -70 -35 -15 -85 -49 -112 -74
-221 -207 -108 -534 213 -616 75 -19 111 -20 880 -20 536 0 821 4 861 11 145
27 278 121 332 237 22 47 27 71 27 137 0 96 -28 164 -97 234 -58 59 -103 86
-195 117 -77 26 -82 27 -378 28 l-300 1 -5 90 -5 90 -165 1 c-91 0 -186 -1
-211 -3z"/>
</g>
</svg>
