<svg xmlns="http://www.w3.org/2000/svg" viewBox="0 0 64 64" id="cake"><g data-name="Layer 25"><path fill="#f79dc5" d="M41,8a.988.988,0,0,0-.482.124l-40,22A1,1,0,0,0,1,32H63a1,1,0,0,0,1-1A23.026,23.026,0,0,0,41,8Z"></path><path fill="#f9b0d0" d="M41,8a.978.978,0,0,0-.338.067A23.024,23.024,0,0,1,62,31a1,1,0,0,1-1,1h2a1,1,0,0,0,1-1A23.026,23.026,0,0,0,41,8Z"></path><rect width="64" height="26" y="30" fill="#db8285" rx="1"></rect><path fill="#e29b9e" d="M63,30H61a1,1,0,0,1,1,1V55a1,1,0,0,1-1,1h2a1,1,0,0,0,1-1V31A1,1,0,0,0,63,30Z"></path><rect width="60" height="22" y="34" fill="#fddead" rx="1"></rect><rect width="60" height="6" y="42" fill="#db8285" rx="1"></rect><path fill="#db8285" d="M54.324,23.349a11.293,11.293,0,0,0-11.069-8.857c-.318,0-.644.016-.984.049l-.011-.022c-.86-1.756-1.671-3.415-3.837-4.425a1,1,0,0,0-.87.011l-6,3A1,1,0,0,0,32,15a5.868,5.868,0,0,1,5.1,2.822l1.328,2.642a1,1,0,0,0,1.039.54l2.984-.439a6.164,6.164,0,0,1,.8-.071,5.138,5.138,0,0,1,5.107,4.265l.32,2.081a1,1,0,0,0,.56.752l1.947.921a5.007,5.007,0,0,1,2.617,2.825,1,1,0,0,0,.941.662H59a1,1,0,0,0,.979-1.2A11.068,11.068,0,0,0,54.324,23.349Z"></path><circle cx="35" cy="24" r="4" fill="#c73b40"></circle><path fill="#d26266" d="M35,20a3.939,3.939,0,0,0-.5.051,3.978,3.978,0,0,1,0,7.9A3.939,3.939,0,0,0,35,28a4,4,0,0,0,0-8Z"></path><path fill="#8a490e" d="M35,24a1,1,0,0,1-1-1V18a1,1,0,0,1,2,0v5A1,1,0,0,1,35,24Z"></path></g></svg>