<svg xmlns="http://www.w3.org/2000/svg" width="163.839" height="163.839" fill-rule="evenodd" clip-rule="evenodd" image-rendering="optimizeQuality" shape-rendering="geometricPrecision" text-rendering="geometricPrecision" viewBox="0 0 1707 1707" id="chicken"><path fill="#474748" fill-rule="nonzero" d="M574 964c-15,22 18,45 33,23 0,-1 228,-334 589,-72 69,51 208,226 229,309 20,76 18,164 -40,233 -17,20 13,46 30,26 68,-80 71,-181 49,-268 -24,-94 -168,-276 -245,-332 -393,-286 -644,80 -645,81zm-326 511c7,25 45,14 38,-11 0,-1 -95,-315 184,-399 26,-8 14,-46 -11,-39 -318,96 -212,448 -211,449z"></path><path fill="#474748" fill-rule="nonzero" d="M377 807c-12 12-19 28-21 44l-19-1 20 1c-2 29-31 8-63 40-59 59 13 132 72 73 2-2 3-3 3-4l0 0 3-3 0 0c8-10 22-10 30-2l90 90c22 22-27 41-5 133 37 150 227 236 320 143 93-93 8-284-143-321-39-9-78-6-110 9l0 0c-8 4-17 2-23-4l-89-89c-13-13-5-24 5-33l0 0 0 0 0 0 3-3 1 0 0 0-1 0c59-59-13-132-72-73l-14-14 14 14-1 0zm-50 4c5-12 12-22 22-32l0 0 0 0c66-66 169-27 162 60-1 22-11 44-27 63l66 65c140-54 317 72 334 230 22 197-207 274-361 120-67-66-102-168-69-254l-66-65c-67 58-162 17-155-66 3-47 40-89 86-100 2-7 4-14 8-21zM1044 828c11 24 47 7 36-17-49-107-178-181-286-140l-58-58c53-63 14-149-62-143-23 1-46 12-64 30l0 0c-14 14-24 30-28 49-18 4-35 14-49 27l14 14-14-14c-35 35-43 93-8 128l14-14-14 14c33 33 86 28 121-1l58 58c-10 27-25 124 16 117 35-7-5-54 25-112 5-8 3-17-3-24l-83-83c-9-7-22-6-29 3l1 0 0 0-1 0-2 3 0 0 0 0 0 0c-20 22-54 31-74 11l0 0c-19-19-12-52 7-71l0 0c29-29 56-10 58-38l-20-1 20 1c1-14 8-28 19-39l-14-14 14 14c52-52 116 12 64 64l-3 3 0 0 0 0 0 0c-10 8-17 20-5 32l81 81c6 6 15 8 23 4l0 0c88-42 203 24 246 116z"></path><path fill="#474748" fill-rule="nonzero" d="M637 1041c-26-4-31 36-5 39 59 8 105 50 123 114 6 25 45 15 38-11-21-80-81-133-156-142zM1129 905c62 0 93 76 49 120-27 27-71 27-99 0l15-15-15 15c-27-28-27-72 0-99l15 14-15-14c13-13 31-21 50-21zm21 49c-12-12-32-12-42 0l0 0c-12 11-12 30 0 42l0 0c28 29 70-16 42-42zM1214 1290c62 0 93 76 49 119-27 28-71 28-99 0l15-14-15 14c-27-27-27-71 0-98l15 14-15-14c13-13 31-21 50-21zm21 49c-12-12-32-12-42 0l0 0c-12 11-12 30 0 42l0 0c28 29 70-16 42-42zM1016 1112c62 0 93 75 50 119-28 27-72 28-99 0l14-14-14 14c-45-44-13-119 49-119zm21 49c-28-28-70 14-42 42l0 0c28 28 70-15 42-42z"></path><path fill="#00afef" fill-rule="nonzero" d="M190 1537l1327 0c11,0 20,9 20,20 0,50 7,92 -25,125 -15,15 -37,25 -60,25l-1197 0c-47,0 -85,-38 -85,-85l0 -65c0,-11 9,-20 20,-20zm1307 40l-1287 0c0,27 -9,90 45,90l1197 0c25,0 45,-21 45,-45l0 -45z"></path><path fill="#474748" fill-rule="nonzero" d="M1260 1097c62 0 93 75 49 119-27 27-71 27-99 0l14-14-14 14c-44-44-12-119 50-119zm21 48c-28-28-70 15-43 43l0 0c28 28 71-15 43-43zM383 1231c62 0 93 75 49 119-44 44-119 13-119-49 0-20 8-37 20-50l14 14-14-14c13-13 30-20 50-20zm21 48c-12-11-31-11-43 0l0 0c-27 28 15 71 43 43 12-12 11-32 0-43zM918 860c20 0 37 8 50 20l-14 15 14-15c27 28 27 72 0 99l-14-14 14 14c-44 44-120 13-120-49 0-39 32-70 70-70zm22 49c-29-29-71 15-43 42 13 12 32 11 43 0l0 0c11-12 11-31 0-42l0 0zM954 1299c19 0 37 8 49 20l-14 14 14-14c44 44 13 120-49 120-19 0-37-8-49-21l14-14-15 14c-27-27-27-71 0-99l15 14-15-14c13-12 31-20 50-20zm21 48c-11-11-31-11-42 0l0 0c-12 12-12 31 0 43l0 0c29 29 70-16 42-43l0 0zM595 35c20-17-6-47-26-30 0 0-110 93 22 234 104 111-57 147-16 183 17 15 30-3 39-12 38-37 101-98 6-198-104-111-25-177-25-177zM992 238c20-17-6-47-26-30 0 1-110 93 22 234 105 111-57 147-15 184 16 14 29-4 39-13 37-36 100-98 5-198-103-111-25-176-25-177zM1339 469c20-17-6-47-26-30-1 0-111 93 22 234 104 111-58 147-16 183 16 15 30-3 39-12 37-37 100-98 6-198-104-111-25-177-25-177z"></path><path fill="#00afef" fill-rule="nonzero" d="M140 1450l1426 0c84,0 84,127 0,127l-1426 0c-83,0 -83,-127 0,-127zm1426 40l-1426 0c-31,0 -31,47 0,47l1426 0c31,0 31,-47 0,-47z"></path></svg>