<svg xmlns="http://www.w3.org/2000/svg" enable-background="new 0 0 512 512" viewBox="0 0 512 512" id="ice-cream-bowl"><path fill="#3179af" d="M256,59L256,59c-58,0-105,47-105,105v156h210V164C361,106,314,59,256,59z"></path><path fill="#265e87" d="M305,269v-20c0-68.9-56.1-125-125-125c-7.5,0-14.8,0.7-21.9,1.9c-4.6,11.8-7.1,24.6-7.1,38.1v105H305z"></path><path fill="#265e87" d="M207,249v20h130.4c1.9,13,11.6,24.1,23.6,28.2V164c0-13.4-2.5-26.3-7.1-38.1c-7.1-1.3-14.4-1.9-21.9-1.9C263.1,124,207,180.1,207,249z"></path><path fill="#4893cc" d="M161.9,117.3l1.1,0.9c9.9,4.3,26.2-11.2,35.4-8.7c10.7,3,16.7,24.4,25.8,25.7c12.1,1.6,23.8-17.8,31.7-17.8c10.8,0,22.3,19.1,31.8,17.8c11-1.5,17-23.2,25.8-25.7c11.7-3.3,28.1,11.9,35.4,8.7l1.1-0.9C332.9,82.8,297.2,59,256,59h0C214.8,59,179.1,82.8,161.9,117.3z"></path><path fill="#ffc970" d="M193.2,234.9L165,245.2c-5.2,1.9-10.9-0.8-12.8-6L75.6,28.7c-1.9-5.2,0.8-10.9,6-12.8l28.2-10.3c5.2-1.9,10.9,0.8,12.8,6l76.6,210.5C201.1,227.3,198.4,233,193.2,234.9z"></path><path fill="#ffb233" d="M116.6,141.3l35.6,97.9c1.9,5.2,7.6,7.9,12.8,6l28.2-10.3c5.2-1.9,7.9-7.6,6-12.8l-35.3-97C146.8,127.2,130.8,132.9,116.6,141.3z"></path><polygon fill="#d84861" points="139.7 58.6 85.9 56.9 79 38.1 132.9 39.8"></polygon><polygon fill="#d84861" points="156.8 105.6 103 103.9 96.1 85.1 150 86.8"></polygon><polygon fill="#c12944" points="173.9 152.5 120.1 150.8 113.2 132 167.1 133.7"></polygon><rect width="50" height="160" x="231" y="347" fill="#9cd3fc"></rect><rect width="25" height="160" x="231" y="347" fill="#cde9fe"></rect><rect width="50" height="70" x="231" y="347" fill="#6abdfb"></rect><path fill="#6abdfb" d="M332.8,507H179.2c-6.8,0-12.2-5.5-12.2-12.2v0c0-4.7,2.7-9.1,7-11.1l57-26.7h50l57,26.7c4.3,2,7,6.3,7,11.1l0,0C345,501.5,339.5,507,332.8,507z"></path><path fill="#9cd3fc" d="M277.3,507h-98.1c-6.8,0-12.2-5.5-12.2-12.2v0c0-4.7,2.7-9.1,7-11.1l57-26.7h25l30.2,25.9c3,2.6,4.8,6.4,4.8,10.4l0,0C291,500.9,284.9,507,277.3,507z"></path><path fill="#b23998" d="M180,144L180,144c-58,0-105,47-105,105v0l105,71l105-71v0C285,191,238,144,180,144z"></path><path fill="#9cd3fc" d="M75,249L75,249l362,0v0c0,81.7-66.3,148-148,148h-66C141.3,397,75,330.7,75,249z"></path><path fill="#6abdfb" d="M393,249L393,249c0,0-66.3,148-148,148h44c81.7,0,148-66,148-148l0,0H393z"></path><path fill="#c955b0" d="M85.9,202.3l1.1,0.9c9.9,4.3,26.2-11.2,35.4-8.7c10.7,3,16.7,24.4,25.8,25.7c12.1,1.6,23.8-17.8,31.7-17.8c10.8,0,22.3,19.1,31.8,17.8c11-1.5,17-23.2,25.8-25.7c11.7-3.3,28.1,11.9,35.4,8.7l1.1-0.9C256.9,167.8,221.2,144,180,144h0C138.8,144,103.1,167.8,85.9,202.3z"></path><path fill="#8b2d77" d="M285,249c0,0-17.4-66.5-44.1-85.5C219.9,185.9,207,216,207,249H285L285,249z"></path><path fill="#b23998" d="M210.4,220.2c0.5,0,0.9,0,1.4,0c11-1.5,17-23.2,25.8-25.7c11.7-3.3,28.1,11.9,35.4,8.7l1.1-0.9c-7.7-15.5-19.2-28.9-33.2-38.8C226.2,179.2,215.5,198.6,210.4,220.2z"></path><path fill="#d84861" d="M227,249L227,249l115,0c8.3,0,15,6.7,15,15v0c0,8.3,6.7,15,15,15h1c13.3,0,24,10.7,24,24v0c0,11,9,20,20,20h0c11,0,20-9,20-20v-54c0-58-47-105-105-105h0C274,144,227,191,227,249z"></path><path fill="#e17084" d="M237.9,202.3l1.1,0.9c9.9,4.3,26.2-11.2,35.4-8.7c10.7,3,16.7,24.4,25.8,25.7c12.1,1.6,23.8-17.8,31.7-17.8c10.8,0,22.3,19.1,31.8,17.8c11-1.5,17-23.2,25.8-25.7c11.7-3.3,28.1,11.9,35.4,8.7l1.1-0.9C408.9,167.8,373.2,144,332,144h0C290.8,144,255.1,167.8,237.9,202.3z"></path><path fill="#cde9fe" d="M119,249L119,249c0,33.9,13.5,66.5,37.5,90.5l4.5,4.5c9,9,21.1,14,33.8,14h0c10.3,0,16.1-11.8,9.8-20l0,0c-17.2-22.4-26.6-49.8-26.6-78.1V249H119z"></path></svg>