<svg xmlns="http://www.w3.org/2000/svg" viewBox="0 0 96 96" id="juice-fruit"><g data-name="Juice fruit"><path fill="#f9d67c" d="M71.43,20.12V72.27A22.73,22.73,0,0,1,48.7,95H42.41A22.73,22.73,0,0,1,19.68,72.27V20.12Z"></path><path fill="#f9a968" d="M71.43,60.26v12A22.73,22.73,0,0,1,48.7,95H42.41A22.73,22.73,0,0,1,19.68,72.27v-12A22.73,22.73,0,0,0,42.41,83H48.7A22.73,22.73,0,0,0,71.43,60.26Z"></path><path fill="#f9efae" d="M39.77,77.66A10.68,10.68,0,0,0,50.55,67.1V38.48a5.9,5.9,0,0,0-5.9-5.9H29.58a5.9,5.9,0,0,0-5.9,5.9c0,39,0,26,0,28.73A10.68,10.68,0,0,0,34.45,77.66Z"></path><path fill="#f9a968" d="M71.43,20.12V72.27A22.73,22.73,0,0,1,48.7,95c-5.82,0-8.32.17-11.58-.62A22.74,22.74,0,0,0,54.55,72.27V20.12Z"></path><path fill="#dbdbdb" d="M81.65,8.46l-1.42,4.83L62.58,8.1a.83.83,0,0,0-1,.57L58.17,20.12H52.91L56.62,7.57a6.2,6.2,0,0,1,7.7-4.2Z"></path><path fill="#fff" d="M64.05,3.3a6.23,6.23,0,0,0-4.43,4.27L55.91,20.12h-3L56.62,7.57A6.19,6.19,0,0,1,64.05,3.3Z"></path><polygon fill="#f9d67c" points="58.17 20.12 48.78 51.97 43.48 51.97 52.91 20.12 58.17 20.12"></polygon><path fill="#f9f9a4" d="M71.43,30.38V20.12h-27a5.13,5.13,0,1,0,0,10.25Z" opacity=".62"></path><path fill="#f98659" d="M47,47.75c.1-.1-.1.06,4.64-2.76a19.13,19.13,0,0,1,14.47-2.12V56.78H47v-9"></path><path fill="#f9a959" d="M25,43.59A22,22,0,0,1,44.3,46l2,1.31a21.91,21.91,0,0,0,19.81,2.2V71.36A17.6,17.6,0,0,1,48.5,88.93H42.6A17.59,17.59,0,0,1,25,71.36Z"></path><path fill="#f9724a" d="M42.6,84.93A13.57,13.57,0,0,1,29,71.36V49.63a3.22,3.22,0,0,1,3.19-3.25,17.89,17.89,0,0,1,9.88,3l2,1.36a25.93,25.93,0,0,0,15.76,4.18,2,2,0,0,1,2.17,2V71.36A13.57,13.57,0,0,1,48.5,84.93Z"></path><path fill="#f98659" d="M35.4,20.13A15.72,15.72,0,0,1,19.68,35.84V31.51a11.4,11.4,0,1,0-8-3.35h0L8.55,31.24A15.73,15.73,0,1,1,35.4,20.13Z"></path><path fill="#f95931" d="M19.68,31.51v4.33a15.7,15.7,0,0,0,13.5-7.7l-3.27-3.05A11.37,11.37,0,0,1,19.68,31.51Z"></path><path fill="#f9cc63" d="M15.16,5.07a2.17,2.17,0,0,0-1.48,2.67h0A2.18,2.18,0,0,0,16.43,9.2a11.43,11.43,0,0,1,6.8.1,2.14,2.14,0,0,0,2.63-1.14h0a2.16,2.16,0,0,0-1.26-3A15.56,15.56,0,0,0,15.16,5.07Z"></path><path fill="#f9d67c" d="M19.68,31.51V20.11l-8,8.05a11.38,11.38,0,1,1,8,3.35Z"></path><path fill="#f9f99a" d="M17.22,18.33,12,23.53A8.39,8.39,0,1,1,22.68,28V20.59A3.2,3.2,0,0,0,17.22,18.33Z"></path><path fill="#43aa9f" d="M83.83,52.06h5.46a0,0,0,0,1,0,0v5.46a7.75,7.75,0,0,1-7.75,7.75H76.08a0,0,0,0,1,0,0V59.81A7.75,7.75,0,0,1,83.83,52.06Z"></path><path fill="#43dc95" d="M71.93,55.12h5.46a0,0,0,0,1,0,0v5.46a7.75,7.75,0,0,1-7.75,7.75H64.18a0,0,0,0,1,0,0V62.87A7.75,7.75,0,0,1,71.93,55.12Z" transform="rotate(-90 70.79 61.72)"></path><path fill="#fff" d="M77.39,63.45V66.9a8.33,8.33,0,0,0-8.33-8.33H64.19V55.12h4.87A8.33,8.33,0,0,1,77.39,63.45Z"></path><circle cx="75.51" cy="78.03" r="18.09" fill="#f98659"></circle><path fill="#f9a959" d="M85.37,78.54a4.29,4.29,0,0,0,4-5.76,14.86,14.86,0,0,0-27.81,0,4.29,4.29,0,0,0,4.05,5.75Z"></path><path fill="#f9d67c" d="M61.39,69.39h0a1.63,1.63,0,0,0,2.29-.32,14.91,14.91,0,0,1,8.59-5.54,1.61,1.61,0,0,0,1.25-1.75h0a1.62,1.62,0,0,0-1.94-1.39A18.05,18.05,0,0,0,61.1,67.13,1.62,1.62,0,0,0,61.39,69.39Z"></path><path fill="#f96836" d="M64.18,87.64a1.61,1.61,0,0,0-2.25-.21h0a1.61,1.61,0,0,0-.22,2.29,18.07,18.07,0,0,0,30.77-5.47,1.63,1.63,0,0,0-.81-2h0a1.62,1.62,0,0,0-2.22.93A14.84,14.84,0,0,1,64.18,87.64Z"></path><path fill="#302d3d" d="M34.14 71a3.11 3.11 0 103.11 3.11A3.11 3.11 0 0034.14 71zm0 4.22a1.11 1.11 0 111.11-1.11A1.11 1.11 0 0134.14 75.2zM34.14 46.75a3.11 3.11 0 103.11 3.11A3.11 3.11 0 0034.14 46.75zm0 4.22a1.11 1.11 0 111.11-1.11A1.11 1.11 0 0134.14 51zM44.48 58.89A3.11 3.11 0 1041.37 62 3.12 3.12 0 0044.48 58.89zM41.37 60a1.11 1.11 0 111.11-1.11A1.11 1.11 0 0141.37 60zM50.64 66.76a3.11 3.11 0 103.11 3.11A3.11 3.11 0 0050.64 66.76zm0 4.22a1.11 1.11 0 111.11-1.11A1.11 1.11 0 0150.64 71zM57.42 54.76a3.11 3.11 0 103.11 3A3.11 3.11 0 0057.42 54.76zm1.11 3.1a1.11 1.11 0 01-2.22 0c0-.12-.21-.08 2.21-.08A.19.19 0 0158.53 57.86zM45 79.36a3.11 3.11 0 103.11 3.11A3.11 3.11 0 0045 79.36zm0 4.22a1.11 1.11 0 111.11-1.11A1.11 1.11 0 0145 83.58z"></path><path fill="#302d3d" d="M87.89,63.53a8.72,8.72,0,0,0,2.4-6V52.06a1,1,0,0,0-1-1H83.83a8.75,8.75,0,0,0-8.12,5.5,9,9,0,0,0-3.28-2V20.12a1,1,0,0,0-1-1H59.51l3-10L80,14.25a1,1,0,0,0,1.24-.68l1.42-4.83a1,1,0,0,0-.68-1.24L64.61,2.41a7.22,7.22,0,0,0-9,4.88l-3.5,11.83H36.37A16.73,16.73,0,1,0,7.84,32a1,1,0,0,0,1.42,0l3.08-3.07h0l6.34-6.34V72.27A23.76,23.76,0,0,0,42.41,96H48.7a23.65,23.65,0,0,0,13.55-4.26A19.07,19.07,0,1,0,87.89,63.53ZM83.83,53.06h4.46v4.45a6.74,6.74,0,0,1-2,4.79,18.71,18.71,0,0,0-8.78-3.25,6,6,0,0,0-.3-.56A6.76,6.76,0,0,1,83.83,53.06ZM75.12,59a18.92,18.92,0,0,0-9.81,3c-.18-1-.13-1.18-.13-5.79,4.83,0,4.65,0,5.25.05A6.72,6.72,0,0,1,75.12,59ZM57.78,85.09a16.54,16.54,0,0,1-9.28,2.84H42.6A16.58,16.58,0,0,1,26,71.36v-27a21.1,21.1,0,0,1,17.72,2.52A37.91,37.91,0,0,0,48,49.44a23,23,0,0,0,17.1,1.47v3.21h-.9a1,1,0,0,0-1,1c0,5.45-.13,6.31.38,8A19.05,19.05,0,0,0,57.78,85.09ZM52.12,45.85a18,18,0,0,1,13-2.18v5.14A20.93,20.93,0,0,1,49,47.7Zm-2.3-1L47,46.57c-.2-.12,0,0-.72-.47l7.39-25h3.18ZM70.43,21.12v33c-.52-.06-.89,0-3.35,0V42.87a1,1,0,0,0-.76-1,20,20,0,0,0-14,1.55l6.59-22.33ZM57.58,7.85A5.2,5.2,0,0,1,64,4.33L80.41,9.14l-.86,2.91L62.86,7.14a1.84,1.84,0,0,0-2.27,1.24L57.42,19.12H54.25ZM11.67,26.7a10,10,0,0,1-1.33-2,10.19,10.19,0,0,1-1-3.56h7.92Zm0-13.17h0l5.59,5.59H9.36A10.72,10.72,0,0,1,11.67,13.53ZM30,19.12H22.09l5.6-5.61A10.26,10.26,0,0,1,30,19.12Zm-2.32,7.6-5.6-5.6H30A10.46,10.46,0,0,1,27.69,26.72ZM26.28,12.1l-5.6,5.6V9.78a10.28,10.28,0,0,1,5.6,2.31Zm-7.6,5.61L13.07,12.1h0a10.1,10.1,0,0,1,5.61-2.32Zm7.59,10.42a10.75,10.75,0,0,1-1.49,1,10.25,10.25,0,0,1-1.73.78,10.4,10.4,0,0,1-2.37.52V22.54Zm-5.59,4.34.5,0A12.46,12.46,0,0,0,31.77,22.8,13,13,0,0,0,32,21.12h2.34A14.74,14.74,0,0,1,20.68,34.81ZM8.57,29.8C.35,20.4,7,5.4,19.68,5.4A14.73,14.73,0,0,1,34.36,19.12H32C31.2,8.71,18.38,3.91,11,11.27h0s0,0,0,0l0,0A12.54,12.54,0,0,0,8.72,25.92a13.41,13.41,0,0,0,1.52,2.21s0,0,0,0ZM48.7,94H42.41A21.76,21.76,0,0,1,20.68,72.27V36.81A16.74,16.74,0,0,0,36.37,21.12h15.2L44.51,45A23,23,0,0,0,24.7,42.65a1,1,0,0,0-.67.94V71.36A18.59,18.59,0,0,0,42.6,89.93h5.9a18.38,18.38,0,0,0,10.12-3,18.8,18.8,0,0,0,2.25,3.34A21.59,21.59,0,0,1,48.7,94Zm26.81,1.12A17.09,17.09,0,1,1,92.6,78,17.11,17.11,0,0,1,75.51,95.12Z"></path></g></svg>