<svg xmlns="http://www.w3.org/2000/svg" enable-background="new 0 0 50 50" viewBox="0 0 50 50" id="pizza-slice"><polygon fill="#DCC55E" points="49 9.22 48.99 12.616 35.05 37.11 35.06 33.714"></polygon><path fill="#EFD874" d="M35.0601,33.7142l-0.0097,3.396c-6.5704-1.2672-12.5441-3.3998-17.4357-6.224
					c-5.0189-2.8977-8.7238-6.3837-10.9194-10.2075l0.0096-3.396c2.1957,3.8238,5.9005,7.3098,10.9194,10.2075
					C22.5161,30.3144,28.4897,32.447,35.0601,33.7142z"></path><path fill="#F7E28E" d="M49,9.2201L35.0601,33.7142c-6.5704-1.2672-12.5441-3.3998-17.4357-6.224
						c-5.0189-2.8977-8.7238-6.3837-10.9194-10.2075L49,9.2201z"></path><polygon fill="#CB952B" points="35.05 33.714 35.041 37.117 34.398 38.261 34.407 34.024"></polygon><path fill="#DEA726" d="M34.4072,34.0238l-0.0096,4.2375c-6.7016-1.2823-12.8911-3.4939-17.9049-6.3886
					c-5.0542-2.933-8.8921-6.5265-11.1145-10.4272l0.0096-4.2374c2.2224,3.9007,6.0603,7.4942,11.1145,10.4272
					C21.5162,30.5299,27.7057,32.7415,34.4072,34.0238z"></path><path fill="#EBB41F" d="M7.2614,17.1767c2.129,3.7238,5.8796,6.8037,10.6677,9.5831
						c4.8277,2.7873,10.7254,5.7256,17.1214,6.9544l-0.6433,0.3096c-6.7016-1.2823-12.8911-3.4938-17.9049-6.3886
						c-5.0542-2.933-8.8915-7.7375-11.1139-11.6382L7.2614,17.1767z"></path><polygon fill="#733316" points="34.407 34.024 34.397 38.241 32.94 40.78 32.951 36.563"></polygon><path fill="#A45826" d="M32.9508,35.37l-0.0107,5.41c-7.5971-1.4654-13.6182-3.4252-19.299-6.705
					C7.8716,30.744,3.54,26.6629,1,22.2416l0.0107-5.4099c2.54,4.4214,6.8716,8.5024,12.6411,11.8334
					C19.3326,31.9448,25.3537,33.9046,32.9508,35.37z"></path><path fill="#C9802A" d="M5.3884,15.997c2.3172,4.0209,6.2648,7.7439,11.4588,10.7426
						c5.2235,3.0158,10.6251,5.9468,17.56,7.2842l-1.4565,2.5387c-7.5971-1.4654-13.5488-3.9836-19.2297-7.2634
						C7.9517,25.9681,3.5507,21.253,1.0107,16.8316L5.3884,15.997z"></path><path fill="#3D3D3D" d="M14.8638,20.117l0.0182,1.0031c-0.005-0.2775,0.1743-0.559,0.5396-0.7774
				c0.7164-0.4284,1.8914-0.4462,2.616-0.0398c0.3617,0.2029,0.5464,0.4753,0.5514,0.7505l-0.0182-1.0031
				c-0.005-0.2753-0.1897-0.5477-0.5514-0.7505c-0.7246-0.4064-1.8996-0.3886-2.616,0.0398
				C15.0381,19.5581,14.8588,19.8395,14.8638,20.117z"></path><path fill="#3D3D3D" d="M13.9397,20.1272l0.0182,1.0031c0.0074,0.4103,0.2836,0.8156,0.8245,1.119
				c1.0865,0.6094,2.8487,0.5871,3.9312-0.0601c0.5389-0.3222,0.8031-0.7395,0.7956-1.1523l-0.0182-1.0031
				c0.0075,0.4128-0.2567,0.8301-0.7956,1.1523c-1.0825,0.6472-2.8447,0.6695-3.9312,0.0601
				C14.2233,20.9428,13.9471,20.5375,13.9397,20.1272z"></path><path fill="#686868" d="M18.6658,18.9134c1.0865,0.6094,1.1043,1.6301,0.0296,2.2726
					c-1.0825,0.6472-2.8447,0.6695-3.9312,0.0601c-1.0869-0.6096-1.1047-1.6303-0.0222-2.2775
					C15.8167,18.3261,17.5789,18.3038,18.6658,18.9134z M18.0417,20.8194c0.7164-0.4284,0.702-1.1133-0.0223-1.5195
					c-0.7246-0.4064-1.8996-0.3886-2.616,0.0398c-0.7242,0.433-0.7174,1.1137,0.0072,1.5201
					C16.1348,21.2659,17.3175,21.2524,18.0417,20.8194"></path><path fill="#3D3D3D" d="M30.9427,28.7043l0.0182,1.0031c-0.005-0.2775,0.1743-0.559,0.5396-0.7774
				c0.7164-0.4284,1.8914-0.4462,2.616-0.0398c0.3617,0.2029,0.5464,0.4753,0.5514,0.7505l-0.0182-1.0031
				c-0.005-0.2753-0.1897-0.5477-0.5514-0.7505c-0.7246-0.4064-1.8996-0.3886-2.616,0.0398
				C31.117,28.1454,30.9377,28.4269,30.9427,28.7043z"></path><path fill="#3D3D3D" d="M30.0186,28.7145l0.0182,1.0031c0.0074,0.4103,0.2836,0.8156,0.8245,1.119
				c1.0865,0.6094,2.8487,0.5871,3.9312-0.0601c0.5389-0.3222,0.8031-0.7395,0.7956-1.1523l-0.0182-1.0031
				c0.0075,0.4128-0.2567,0.8301-0.7956,1.1523c-1.0825,0.6472-2.8447,0.6695-3.9312,0.0601
				C30.3022,29.5301,30.026,29.1248,30.0186,28.7145z"></path><path fill="#686868" d="M34.7447,27.5007c1.0865,0.6094,1.1043,1.6301,0.0296,2.2726
					c-1.0825,0.6472-2.8447,0.6695-3.9312,0.0601c-1.0869-0.6096-1.1047-1.6303-0.0222-2.2775
					C31.8956,26.9134,33.6578,26.8911,34.7447,27.5007z M34.1206,29.4067c0.7164-0.4284,0.702-1.1133-0.0223-1.5195
					c-0.7246-0.4064-1.8996-0.3886-2.616,0.0398c-0.7242,0.433-0.7174,1.1137,0.0072,1.5201
					C32.2137,29.8532,33.3964,29.8397,34.1206,29.4067"></path><path fill="#FDDB00" d="M22.9667 25.5549l.0798.101c-.0993.0577-.0977.0748-.3054.1652l-.0423.0123-.0477-.0398-.0004-.0919.1421-.0887L22.9667 25.5549zM23.4428 26.6291l.0532.0366.0162.0888-.1155.0978-.1635.0704-.0957-.0979.0421-.0429C23.4116 26.6278 23.3427 26.684 23.4428 26.6291zM25.6704 26.3047l.0212.0245-.0683.0274-.1585.0061-.1641-.0766-.1115-.0948.1738-.0519C25.4625 26.1912 25.4777 26.1762 25.6704 26.3047zM25.895 26.7882l.0159.0214-.0684.0336-.1531.003-.1644-.0764-.1112-.095.1738-.0519C25.6861 26.6723 25.6932 26.6536 25.895 26.7882zM25.5302 25.7906l.0212.0245-.0686.0276-.1585.0061-.1588-.0735-.1168-.0979.1741-.0521C25.3233 25.6777 25.3352 25.6612 25.5302 25.7906z"></path><path fill="#EE4541" d="M26.9127,24.6002c1.5212,0.8782,1.5294,2.298,0.0231,3.1733c-1.5113,0.8783-3.9625,0.8783-5.4837,0
					C17.8389,25.6875,23.2567,22.4894,26.9127,24.6002z M24.0095,27.8531c0.1054-0.0183,0.1739-0.0764,0.1789-0.1407
					c0.03-0.2816,0.0787-1.0404-0.1971-1.2119c-0.342-0.1974-0.0604,0.6365-0.2287,0.6609c-0.992,0.1436-1.5258-1.1437-1.429-1.4106
					c0.1342-0.3533,0.4368-0.648,0.7774-0.4513c0.2827,0.1632,0.2789,0.4668,0.2798,0.4673
					c0.0158,0.0091,0.0439,0.0067,0.0945-0.0099c0.2532-0.0795,0.2479-0.0641,0.1938-0.2906
					c-0.0583-0.2043-0.0322-0.6969-0.3406-0.8749c-0.0336-0.0194-0.0713-0.0351-0.1137-0.0463
					c-1.3883-0.3579-2.8263,1.6259-0.9985,2.8215c0.0508,0.0342,0.1082,0.0705,0.1716,0.1071
					C22.7925,27.7015,23.414,27.9453,24.0095,27.8531 M25.4566,27.7797c1.4514,0.3138,2.6321-1.72,0.6605-2.8583
					c-0.4293-0.2479-1.2927-0.5996-1.9994-0.3671c-0.0012,0.0545-0.0249,1.09,0.3314,1.2957
					c0.369,0.2008-0.0105-0.6285,0.1583-0.6592c0.8735-0.1794,1.6747,1.0148,1.5872,1.3496
					c-0.0917,0.3747-0.3744,0.6807-0.7591,0.4586c-0.005-0.0029-0.01-0.0058-0.0147-0.0089
					c-0.3863-0.2412-0.1404-0.496-0.3725-0.4098c-0.2372,0.0888-0.2373,0.0703-0.1514,0.2968
					C24.9819,27.1012,25.01,27.6806,25.4566,27.7797 M23.0913,26.1884c-0.0107-0.0611-0.0269-0.1254-0.0486-0.1866l-0.0369-0.0522
					l-0.1902-0.0122l-0.0051,0.1133l0.0642,0.1162l0.1274,0.0489l0.0842,0.0001L23.0913,26.1884 M23.4957,26.6658l-0.0532-0.0367
					c-0.1002,0.0549-0.0358,0.0014-0.2632,0.1529l-0.0421,0.0428l0.0957,0.0979l0.1637-0.0705l0.1152-0.0978L23.4957,26.6658
					 M25.0486,25.6775l0.1167,0.0978l0.1589,0.0735l0.1585-0.0061l0.0686-0.0276l-0.0213-0.0245
					c-0.195-0.1302-0.2072-0.113-0.3073-0.1652L25.0486,25.6775 M25.1888,26.1914l0.1118,0.0948l0.1639,0.0766l0.1585-0.0061
					l0.0684-0.0274l-0.0213-0.0245c-0.1924-0.1285-0.2069-0.113-0.3073-0.1652L25.1888,26.1914 M22.9884,25.6958l0.0577-0.0398
					l-0.0797-0.101l-0.174,0.0581l-0.142,0.0886l0.0003,0.092l0.0476,0.0397C22.7985,25.7899,22.7958,25.8077,22.9884,25.6958
					 M25.4137,26.6749l0.1111,0.095l0.1643,0.0764l0.1531-0.003l0.0686-0.0336l-0.0161-0.0215
					c-0.2008-0.1342-0.2091-0.1161-0.3073-0.1652L25.4137,26.6749"></path><path fill="#FDDB00" d="M23.006,25.9496l0.037,0.0522c0.0216,0.0611,0.0378,0.1254,0.0487,0.1866l-0.0051,0.0275l-0.0844-0.0001
					l-0.1271-0.0489l-0.0642-0.1162l0.0049-0.1133L23.006,25.9496z"></path><path fill="#E02426" d="M26.1171 24.9214c2.2554 1.3021.3267 3.4559-.8046 2.8027-.3079-.1778-.3399-.6484-.4155-.8472-.0857-.2265-.0858-.208.1515-.2968.2276-.0843-.01.1713.3724.4099.0048.0031.0097.006.0147.0088.3847.2221.6675-.0839.7593-.4586.0939-.3593-.6658-1.1258-.8468-1.2302-.2201-.1271-.5988-.1485-.7403-.1193-.1689.0306.2107.86-.1494.664-.3653-.2106-.3414-1.246-.3402-1.3005C24.8245 24.3217 25.6878 24.6735 26.1171 24.9214zM23.3386 24.5914c.3083.178.2823.6707.3406.8748.0541.2265.0595.2111-.1937.2906-.2358.0774.0305-.1721-.3246-.4254-.352-.2446-.6779.0259-.8272.4193-.1108.3059.5167 1.5432 1.4292 1.4106.1682-.0244-.1134-.8585.2241-.6636.2803.1741.2316.933.2016 1.2145-.0304.392-1.3545.0645-1.962-.3457-1.8273-1.1946-.3833-3.1777.9986-2.8215C23.2673 24.5562 23.3049 24.572 23.3386 24.5914z"></path><path fill="#FDDB00" d="M39.7057 14.054l.0697.0883-.0505.0347c-.0692.0402-.1427.0776-.2164.1097l-.037.0108-.0417-.0348-.0003-.0803.1242-.0776L39.7057 14.054zM40.1219 14.9929l.0465.032.0142.0776-.1009.0855-.1429.0616-.0836-.0856.0368-.0375c.0643-.0427.1288-.0856.2024-.123L40.1219 14.9929zM41.9705 14.6485c.0336.0194.0662.0394.0984.0609l.0186.0214-.0597.024-.1385.0054-.1435-.0669-.0975-.0829.1519-.0453.0648.0267C41.9023 14.6103 41.9369 14.6291 41.9705 14.6485zM42.165 15.0701c.0342.0197.0679.0404.1002.0619l.0139.0187-.0598.0294-.1338.0026-.1437-.0668-.0972-.083.1519-.0454.0648.0267C42.0963 15.0315 42.1309 15.0503 42.165 15.0701zM41.8497 14.2001c.0342.0197.0665.0398.0967.0599l.0186.0214-.06.0241-.1385.0054-.1388-.0642-.1021-.0856.1522-.0455.0648.0267C41.7795 14.161 41.8155 14.1804 41.8497 14.2001z"></path><path fill="#EE4541" d="M43.1547,13.2195c1.3296,0.7676,1.3367,2.0085,0.0202,2.7736c-1.3209,0.7676-3.4634,0.7676-4.793,0
					c-1.325-0.765-1.332-2.006-0.0111-2.7736C39.6874,12.4545,41.8297,12.4545,43.1547,13.2195z M40.6172,16.0627
					c0.0922-0.016,0.152-0.0668,0.1564-0.123c0.0262-0.2461,0.0688-0.9094-0.1723-1.0593
					c-0.2989-0.1726-0.0528,0.5563-0.1999,0.5777c-0.1219,0.0176-0.4241-0.0102-0.6066-0.1156
					c-0.0383-0.0221-0.0713-0.0476-0.0964-0.0768c-0.1393-0.1712-0.6644-0.7142-0.546-1.0404
					c0.1173-0.3088,0.3818-0.5664,0.6795-0.3945c0.0144,0.0083,0.0287,0.0177,0.0434,0.028
					c0.2493,0.1777,0.1491,0.3504,0.2011,0.3804c0.0138,0.008,0.0384,0.0058,0.0826-0.0087
					c0.2213-0.0695,0.2167-0.0561,0.1694-0.254c-0.051-0.1785-0.0282-0.6091-0.2977-0.7647
					c-0.0294-0.017-0.0623-0.0307-0.0994-0.0405c-0.3838-0.099-1.0891,0.1123-1.2769,0.3932
					c-0.1876,0.2808-0.4851,0.7489-0.34,1.1153c0.1406,0.3638,0.3923,0.7274,0.7442,0.9576c0.0444,0.0299,0.0946,0.0616,0.15,0.0936
					C39.5535,15.9302,40.0967,16.1433,40.6172,16.0627 M41.882,15.9985c0.3837,0.083,1.0658-0.1579,1.2258-0.4439
					c0.1554-0.2889,0.3929-0.765,0.2061-1.1234c-0.1821-0.3611-0.4746-0.7116-0.8546-0.9309
					c-0.3752-0.2166-1.1299-0.5241-1.7475-0.3209c-0.0011,0.0476-0.0217,0.9527,0.2897,1.1325
					c0.3225,0.1755-0.0092-0.5493,0.1383-0.5761c0.1239-0.0254,0.4548-0.0068,0.6471,0.1042
					c0.0301,0.0174,0.0569,0.037,0.0789,0.0588c0.1623,0.1633,0.7472,0.6876,0.6612,1.0165
					c-0.0801,0.3275-0.3272,0.595-0.6635,0.4008c-0.0044-0.0025-0.0088-0.0051-0.0128-0.0078
					c-0.2654-0.1657-0.1899-0.3378-0.2428-0.3684c-0.0147-0.0085-0.0389-0.0061-0.0828,0.0101
					c-0.2073,0.0776-0.2074,0.0614-0.1324,0.2595c0.066,0.1737,0.094,0.5851,0.363,0.7404
					C41.7931,15.9715,41.835,15.9881,41.882,15.9985 M39.8147,14.6077c-0.0094-0.0534-0.0235-0.1096-0.0425-0.1631L39.74,14.3989
					l-0.1662-0.0106l-0.0045,0.0991l0.0561,0.1016l0.1113,0.0427l0.0736,0.0001L39.8147,14.6077 M40.1682,15.025l-0.0465-0.0321
					l-0.0277,0.0106c-0.0735,0.0374-0.1381,0.0802-0.2023,0.123l-0.0368,0.0374l0.0836,0.0856l0.1431-0.0616l0.1007-0.0855
					L40.1682,15.025 M41.5254,14.1611l0.102,0.0855l0.1389,0.0643l0.1385-0.0054l0.06-0.0241L41.9461,14.26
					c-0.0301-0.0201-0.0625-0.0402-0.0966-0.0599c-0.0341-0.0197-0.0701-0.0391-0.1072-0.0578l-0.0648-0.0267L41.5254,14.1611
					 M41.648,14.6103l0.0978,0.0829l0.1433,0.067l0.1385-0.0054l0.0598-0.024l-0.0186-0.0215
					c-0.0323-0.0215-0.0649-0.0415-0.0983-0.0608c-0.0336-0.0194-0.0682-0.0382-0.1055-0.0568L41.8,14.565L41.648,14.6103
					 M39.7247,14.1771l0.0505-0.0348l-0.0697-0.0882l-0.1521,0.0508l-0.1241,0.0774l0.0003,0.0804l0.0416,0.0347l0.037-0.0107
					C39.5819,14.2546,39.6556,14.2173,39.7247,14.1771 M41.8446,15.0329l0.0971,0.0831l0.1436,0.0668l0.1338-0.0026l0.0599-0.0293
					l-0.0141-0.0188c-0.0321-0.0215-0.0659-0.0421-0.1002-0.0619c-0.0341-0.0197-0.0687-0.0385-0.1037-0.0558l-0.0648-0.0267
					L41.8446,15.0329"></path><path fill="#FDDB00" d="M39.7401,14.399l0.0324,0.0456c0.0189,0.0534,0.033,0.1096,0.0425,0.1631l-0.0044,0.0241l-0.0738-0.0001
					l-0.1111-0.0428l-0.0561-0.1015l0.0043-0.0991L39.7401,14.399z"></path><path fill="#E02426" d="M42.4594 13.5003c.3799.2193.6727.5697.8547.9309.1868.3584-.0507.8345-.2062 1.1234-.1598.2861-.842.5269-1.2257.4439-.0471-.0104-.0889-.027-.1261-.0485-.2691-.1554-.2971-.5667-.3631-.7405-.0749-.198-.075-.1818.1324-.2594.044-.0163.0681-.0185.0826-.0101.0529.0305-.0225.2028.2428.3684.0042.0027.0085.0052.0128.0077.3362.1941.5834-.0733.6636-.4008.086-.329-.4988-.8532-.6613-1.0165-.022-.022-.0488-.0415-.0789-.0588-.1924-.1111-.5234-.1298-.6471-.1043-.1476.0267.1841.7517-.1306.5804-.3193-.1841-.2984-1.0891-.2973-1.1367C41.3296 12.9762 42.0841 13.2836 42.4594 13.5003zM40.0308 13.2119c.2695.1556.2467.5862.2977.7646.0473.198.052.1845-.1693.254-.0444.0146-.0689.0166-.0827.0087-.0521-.0301.0481-.2028-.2011-.3805-.0148-.0103-.029-.0196-.0434-.028-.2977-.1719-.5624.0858-.6796.3945-.1182.3263.4067.8692.546 1.0405.0251.0292.0582.0547.0965.0768.1825.1054.4845.1334.6066.1156.147-.0213-.0991-.7503.1959-.58.245.1521.2024.8155.1762 1.0615-.0044.0562-.0641.107-.1562.123-.5207.0806-1.0637-.1325-1.4086-.3316-.0554-.032-.1057-.0636-.1501-.0936-.352-.2301-.6036-.5938-.7441-.9576-.1452-.3664.1524-.8345.34-1.1153.1879-.2809.8931-.4922 1.2769-.3932C39.9685 13.1811 40.0014 13.1949 40.0308 13.2119z"></path><path fill="#3F7337" d="M31.1384 24.6314c-.5935-.1563-1.6403-.2192-2.0221-.4396-.0046-.0026-.0091-.0053-.0136-.008C29.5316 24.3947 30.5283 24.4209 31.1384 24.6314zM31.7228 25.0505c-.3621-.0137-.6939-.0359-.9626-.047-.1522.1035-.4287.1607-.5471.1416.1316-.0089.3916-.0909.5361-.1423-.7328-.0326-1.0542-.0161-1.3432-.1098.3484.0868.6526.0395 1.4577.09-.103-.0526-.2734-.1318-.422-.2521.205.0843.346.1851.4494.2538.0841.005.1682.0099.2524.0162C31.3368 25.0155 31.53 25.0314 31.7228 25.0505z"></path><path fill="#3F7337" d="M32.8493,24.2364c-0.2217,0.2014-0.5887,0.401-0.8612,0.5281c0.0068,0.0237,0.0118,0.0477,0.012,0.0717
				c0.0035,0.0752-0.0205,0.1557-0.1,0.216c0.0238,0.006,0.0458,0.0138,0.0629,0.023c0.0094,0.0048,0.0182,0.0097,0.0268,0.0146
				c0.031,0.0179,0.0576,0.0365,0.0864,0.0542c0.0728,0.0455,0.1486,0.0893,0.2244,0.1331c0.1535,0.0872,0.313,0.1702,0.4792,0.2499
				c-0.1771-0.0713-0.3458-0.1497-0.5047-0.2344c-0.0423-0.0222-0.0834-0.0451-0.1238-0.0684
				c-0.0361-0.0208-0.0715-0.042-0.1067-0.0633c-0.0268-0.0158-0.0529-0.0335-0.08-0.0492
				c-0.2725-0.1573-0.9436,0.2324-1.3083,0.2723c0.3089-0.0471,0.8961-0.3909,1.2182-0.3375
				c-0.3384-0.2233-1.8923-1.083-1.6833-0.9683c-0.5716-0.0071-0.884-0.1373-1.0417-0.1243
				c0.0704-0.0152,0.5452,0.0617,1.0276,0.1176c-1.4954-0.6424-0.9094-0.4065,0.366,0.1634l0.1583,0.0907l0.321,0.1889
				c-0.0526-0.1794-0.5783-0.7729-0.7036-0.9136c0.1714,0.1426,0.3137,0.2972,0.442,0.4543
				c0.0176-0.0173,0.0358-0.0343,0.054-0.0505c0.0146-0.0113,0.0255-0.0226,0.0345-0.0342
				c0.0109-0.0113,0.0243-0.0219,0.0279-0.0339c0.0121-0.024,0.0125-0.0512,0.0166-0.0784
				c0.0035-0.0275,0.0088-0.0568,0.0331-0.0816c-0.01,0.0547,0.0225,0.1073-0.0033,0.167
				c-0.0066,0.0152-0.0212,0.0272-0.0339,0.0395c-0.014,0.0124-0.0267,0.0247-0.0449,0.0339
				c-0.0249,0.0159-0.051,0.0311-0.0784,0.0455c0.0735,0.0962,0.2575,0.3356,0.264,0.4564
				c0.2755,0.1631,0.6104,0.3508,0.8507,0.5285l0.0165,0.0039c0.0655-0.065,0.0772-0.1419,0.0671-0.2146
				c-0.0454-0.3065-0.4769-0.4176-0.4662-0.6443c0.0328,0.154,0.2467,0.2598,0.3819,0.395
				c0.0952-0.2085-0.0557-0.4022-0.1127-0.8617c0.0562,0.1425,0.1623,0.4836,0.1742,0.6263
				c0.1858-0.1287,0.2716-0.2898,0.3878-0.4003c-0.0698,0.1688-0.2133,0.3335-0.3872,0.4056
				c0.0095,0.0784-0.0072,0.1637-0.0584,0.2337c0.0756,0.1005,0.0742,0.071,0.1033,0.1716c0.1373-0.089,0.2818-0.173,0.424-0.2584
				C32.5602,24.4165,32.7048,24.3275,32.8493,24.2364z"></path><path fill="#589441" d="M32.8438,25.5359c-0.003,0.0123-0.0121,0.0254-0.0321,0.03c-0.0231,0.0057-0.0476-0.0021-0.0683-0.0099
				c-0.0519-0.0187-0.1044-0.0378-0.1533-0.0597c-0.0428-0.0198-0.0831-0.0409-0.1228-0.0625
				c-0.0832-0.0445-0.1645-0.0879-0.2458-0.1334c-0.0161-0.0091-0.2837-0.1621-0.302-0.1652
				c-0.1,0.0264-0.0507-0.0144-0.1764,0.0607c-0.2522,0.1517-0.4151,0.2662-0.6242,0.304c-0.3433,0.0619-0.6334-0.0861-0.738-0.1038
				c0.0736-0.0251,0.1497-0.048,0.227-0.0688l-0.0117-0.0131c0.0626-0.0293,0.1252-0.0593,0.1939-0.0837
				c-0.3261,0.0675-1.1983-0.1177-1.5193-0.1966l-0.0177-0.0025c0.0329-0.0049,0.0658-0.0106,0.0968-0.0187
				c-0.0844-0.0558-0.1469-0.1229-0.1809-0.1945c0.0913-0.0233,0.1998-0.0184,0.2835,0.0138
				c0.0595-0.0346,0.146-0.0522,0.2301-0.0473c-0.0367-0.024-0.0759-0.0537-0.0645-0.0851
				c0.0474-0.1338,0.4425,0.0349,0.6538,0.1041c-0.0998-0.0394-0.2413-0.1732-0.1413-0.229
				c-0.2585-0.0035-0.5158-0.036-0.7532-0.095c-0.0226-0.0057-0.0463-0.0124-0.0634-0.0222
				c-0.0074-0.0043-0.0136-0.0092-0.0179-0.0148c0.039-0.0035,0.0786-0.0067,0.1176-0.0102
				c-0.0865,0.0021-0.1738-0.018-0.2355-0.0537c-0.0336-0.0194-0.0594-0.0427-0.0839-0.066
				c-0.0416-0.0381-0.1169-0.083-0.1281-0.1274c-0.0093-0.0378-0.0083-0.071-0.039-0.1049c0.0707,0.0078,0.1427,0.0078,0.214,0.0152
				c0.183,0.0183,0.3418,0.0861,0.5217,0.1119c-0.2747-0.0706-0.5324-0.1624-0.7658-0.2725c0.14-0.0353,0.2904-0.0533,0.4422-0.0438
				c-0.2073-0.0127-0.3494-0.1426-0.5561-0.155c0.0481-0.0018,0.0962-0.0085,0.1413-0.0198
				c-0.0362-0.0051-0.0673-0.0173-0.094-0.0327c-0.0247-0.0143-0.0457-0.0314-0.0637-0.0485
				c-0.0122-0.012-0.0249-0.0249-0.0417-0.0346c-0.0094-0.0054-0.0202-0.0099-0.0329-0.0127
				c0.1372-0.031,0.3007-0.0675,0.4448-0.0233c0.0011-0.0191,0.0028-0.0385,0.0045-0.0572c0.0946,0.0182,0.2173,0.0496,0.2944,0.108
				c0.0011-0.0163-0.0056-0.0328-0.0191-0.0477c0.3991,0.0939,0.9705,0.432,1.0753,0.4752
				c-0.2334-0.1919-0.5353-0.3991-0.2339-0.5214c0.031,0.0174,0.2269,0.0207,0.346,0.0895c0.0276,0.0159,0.0528,0.0335,0.0765,0.051
				c0.0463,0.0347,0.0925,0.0731,0.1008,0.116c-0.0053-0.0542,0.0476-0.1098,0.1307-0.1351
				c0.0649,0.0487,0.1109,0.1063,0.1332,0.1663c0.0317,0.0851,0.0037,0.2452,0.0879,0.2535
				c0.0863-0.2611,0.3177-0.0615,0.4168,0.0943c-0.0425-0.1397-0.2468-0.3892-0.1512-0.4498
				c0.0504,0.0214,0.0989,0.0497,0.1407,0.0861c-0.1069-0.1765,0.1054-0.1457,0.2615-0.3276
				c-0.0078,0.03,0.0253,0.0576,0.0535,0.083c0.0514,0.048,0.0895,0.101,0.1112,0.1557c0.0334-0.0286,0.0735-0.0547,0.119-0.077
				c0.0164,0.1031,0.0371,0.2058,0.0535,0.3089c0.0176-0.0949,0.2282-0.113,0.294-0.18c0.0661,0.0501,0.0987,0.1133,0.1016,0.1762
				c0.0034,0.0632-0.0212,0.1257-0.0611,0.1843c-0.0031,0.0045-0.183,0.2735-0.1874,0.2768
				c0.0322-0.0187,0.0723-0.0364,0.0996-0.0572c0.0649-0.0491,0.1299-0.0981,0.1948-0.1472
				c0.0334-0.0258,0.0686-0.0519,0.1148-0.0696c0.0991-0.0378,0.2332-0.0307,0.3361-0.065
				c0.0651,0.0833,0.0882,0.1818,0.0277,0.2665c0.0353-0.0071,0.0719-0.0106,0.1084-0.012
				c0.0265,0.0069,0.0284,0.0135,0.0251,0.0187c-0.0036,0.007-0.0133,0.012-0.0224,0.0166
				c-0.1337,0.0678-0.2589,0.1356-0.3693,0.216c-0.1797,0.1313-0.4394,0.2164-0.6472,0.3336
				c-0.0437,0.0247-0.0862,0.0522-0.1025,0.0865c-0.0193,0.0388-0.0014,0.0816,0.0336,0.1172
				c0.0349,0.0349,0.0851,0.0646,0.1346,0.0932c0.0526,0.0311,0.1058,0.0618,0.159,0.0925
				c0.0121,0.0072,0.0244,0.0144,0.0367,0.0215c0.0349,0.0202,0.0709,0.0398,0.1088,0.0576
				c0.0991,0.0458,0.2154,0.0791,0.3051,0.1308c0.0043,0.0025,0.0085,0.005,0.0126,0.0075
				C32.834,25.5126,32.8462,25.5232,32.8438,25.5359z M32.2751,25.2927c0.1589,0.0847,0.3276,0.1631,0.5047,0.2344
				c-0.1662-0.0798-0.3257-0.1628-0.4792-0.2499c-0.0758-0.0438-0.1516-0.0875-0.2244-0.1331
				c-0.0288-0.0177-0.0553-0.0363-0.0864-0.0542c-0.0085-0.0049-0.0174-0.0098-0.0268-0.0146
				c-0.0171-0.0092-0.0391-0.017-0.0629-0.0229c0.0795-0.0604,0.1034-0.1409,0.1-0.216c-0.0001-0.024-0.0052-0.048-0.012-0.0717
				c0.2725-0.1271,0.6396-0.3267,0.8612-0.5281c-0.3624,0.2284-0.6561,0.393-0.8619,0.5264
				c-0.029-0.1002-0.028-0.0715-0.1033-0.1716c0.0512-0.07,0.0679-0.1553,0.0584-0.2337c0.1723-0.0714,0.3165-0.2348,0.3872-0.4056
				c-0.126,0.1198-0.2006,0.2707-0.3878,0.4003c-0.0118-0.1425-0.1179-0.4835-0.1742-0.6263
				c0.057,0.4598,0.2078,0.6535,0.1127,0.8617c-0.1347-0.1347-0.3493-0.2416-0.3819-0.395
				c-0.0105,0.2235,0.4216,0.3433,0.4662,0.6443c0.0102,0.0727-0.0016,0.1497-0.0671,0.2146l-0.0165-0.0039
				c-0.2405-0.1778-0.5778-0.3669-0.8507-0.5285c-0.0065-0.1208-0.1906-0.3603-0.264-0.4564
				c0.0274-0.0145,0.0535-0.0297,0.0784-0.0455c0.0182-0.0092,0.031-0.0215,0.0449-0.0339
				c0.0127-0.0124,0.0273-0.0243,0.0339-0.0395c0.0259-0.0597-0.0067-0.1123,0.0033-0.167
				c-0.0242,0.0247-0.0296,0.054-0.0331,0.0816c-0.0041,0.0272-0.0046,0.0544-0.0166,0.0784
				c-0.0036,0.012-0.0169,0.0226-0.0279,0.0339c-0.0091,0.0116-0.02,0.0229-0.0345,0.0342
				c-0.0182,0.0162-0.0364,0.0332-0.054,0.0505c-0.1283-0.1571-0.2705-0.3117-0.442-0.4543
				c0.1253,0.1407,0.651,0.7342,0.7036,0.9136c-0.1652-0.1664-1.1946-0.617-1.7312-0.8236c0.102,0.0438,0.9878,0.4244,0.8858,0.3806
				c-0.8509-0.0985-0.8877-0.1478-1.0276-0.1176c0,0,0.6704,0.1196,1.0417,0.1243c0.1003,0.0551,0.4195,0.2301,0.3191,0.1751
				c0.1012,0.0575,1.2133,0.6937,1.3642,0.7932c-0.3158-0.0524-0.9236,0.2925-1.2182,0.3375
				c0.3734-0.0408,1.0259-0.4353,1.3083-0.2723c0.0271,0.0156,0.0532,0.0334,0.08,0.0491c0.0352,0.0213,0.0707,0.0425,0.1067,0.0633
				C32.1917,25.2476,32.2328,25.2705,32.2751,25.2927 M30.9138,25.0106c0.2701,0.0138,0.5389,0.0296,0.809,0.0399
				c-0.2389-0.0236-0.5378-0.0483-0.8317-0.0657c-0.1022-0.0679-0.2344-0.1653-0.4494-0.2538
				c0.1479,0.1197,0.3214,0.2007,0.422,0.2521c-0.7889-0.0495-1.1183-0.0055-1.4577-0.09c0.286,0.0927,0.5829,0.076,1.3432,0.1098
				c-0.1464,0.052-0.4051,0.1334-0.5361,0.1423c0.1151,0.0186,0.3909-0.0353,0.5471-0.1416
				C30.8114,25.0056,30.8632,25.0081,30.9138,25.0106 M30.0957,24.444c0.3544,0.0526,0.7088,0.0996,1.0426,0.1875
				c-0.5891-0.2033-1.6155-0.241-2.0357-0.4476c0.0045,0.0027,0.009,0.0054,0.0136,0.008
				C29.3481,24.3257,29.8361,24.4019,30.0957,24.444"></path><path fill="#3F7337" d="M35.5264 17.7249c-.5935-.1563-1.6403-.2192-2.0221-.4396-.0046-.0026-.0091-.0053-.0136-.008C33.8566 17.4572 35.021 17.5504 35.5264 17.7249zM36.1108 18.1439c-.3621-.0137-.6939-.0359-.9626-.047-.1598.1087-.4374.1593-.5471.1416.1309-.0088.3978-.0931.5361-.1423-.7592-.0338-1.0575-.0172-1.3432-.1098.3473.0865.655.0396 1.4577.09-.1003-.0559-.2561-.1179-.422-.2521.25.1029.3479.1924.4494.2538C35.5731 18.0956 35.8741 18.1205 36.1108 18.1439z"></path><path fill="#3F7337" d="M37.2374,17.3298c-0.2217,0.2014-0.5887,0.401-0.8612,0.5281c0.0314,0.109,0.0046,0.2174-0.088,0.2877
				c0.0028,0.0007,0.622,0.3511,0.8797,0.4748c-1.1006-0.443-0.6669-0.6053-1.5504-0.311
				c-0.1354,0.0484-0.4298,0.1524-0.5732,0.1681c0.3159-0.0482,0.8955-0.391,1.2182-0.3375
				c-0.2189-0.1444-1.8211-1.0457-1.6833-0.9683c-0.5716-0.0071-0.884-0.1373-1.0417-0.1243
				c0.127-0.0275,0.1739,0.0109,0.8172,0.0932c0.0701,0.0088,0.1402,0.0163,0.2104,0.0244
				c-0.1075-0.0462-0.2308-0.1042-0.8858-0.3806c1.0049,0.3868,1.5103,0.6898,1.4102,0.6347l0.321,0.1889
				c-0.0536-0.1828-0.5895-0.7854-0.7036-0.9136c0.1714,0.1426,0.3137,0.2972,0.442,0.4543
				c0.0225-0.0221,0.0782-0.0715,0.0885-0.0847c0.0677-0.0701,0.0223-0.1375,0.0775-0.1938
				c-0.0214,0.1165,0.0946,0.1509-0.1605,0.286c0.0735,0.0962,0.2575,0.3356,0.264,0.4564
				c0.2755,0.1631,0.6104,0.3508,0.8507,0.5285l0.0165,0.0039c0.3376-0.335-0.4116-0.5957-0.3991-0.8589
				c0.0328,0.154,0.2467,0.2598,0.3819,0.395c0.0595-0.1304,0.0211-0.2654-0.0212-0.4176c-0.0362-0.1476-0.073-0.2948-0.0915-0.4441
				c0.0575,0.1458,0.0979,0.293,0.1384,0.4402c0.0143,0.0611,0.0306,0.1232,0.0358,0.1861
				c0.0826-0.0572,0.1444-0.1214,0.2025-0.1864c0.0624-0.0702,0.1125-0.1447,0.1853-0.2139
				c-0.0267,0.0645-0.0806,0.1568-0.1431,0.2263c-0.069,0.0766-0.1492,0.14-0.244,0.1793c0.0095,0.0784-0.0072,0.1637-0.0584,0.2337
				c0.0757,0.1005,0.0742,0.071,0.1033,0.1716c0.1373-0.089,0.2818-0.173,0.424-0.2584
				C36.9483,17.5099,37.0928,17.4209,37.2374,17.3298z"></path><path fill="#589441" d="M37.1998,18.6593c-0.0231,0.0057-0.0476-0.0021-0.0683-0.0099
				c-0.8992-0.3246-0.5948-0.6039-1.2099-0.2341c-0.5975,0.3577-0.8444,0.1261-1.1527,0.0741
				c0.0736-0.0251,0.1497-0.048,0.227-0.0688l-0.0117-0.0131c0.0626-0.0293,0.1252-0.0593,0.1939-0.0837
				c-0.3261,0.0675-1.1983-0.1177-1.5193-0.1966l-0.0177-0.0025c0.0329-0.0049,0.0658-0.0106,0.0968-0.0187
				c-0.0844-0.0558-0.1469-0.1229-0.1809-0.1945c0.0913-0.0233,0.1998-0.0184,0.2835,0.0138
				c0.0595-0.0346,0.146-0.0522,0.2301-0.0473c-0.1299-0.085-0.0393-0.1378,0.0657-0.1345c0.093,0.0023,0.1909,0.0445,0.5236,0.1535
				c-0.0998-0.0394-0.2413-0.1732-0.1413-0.229c-0.2213-0.003-0.7152-0.0586-0.8166-0.1172
				c-0.0074-0.0043-0.0136-0.0092-0.0179-0.0148c0.039-0.0035,0.0786-0.0067,0.1176-0.0102
				c-0.2057,0.005-0.4298-0.1768-0.4475-0.2471c-0.0093-0.0378-0.0083-0.071-0.039-0.1049c0.0707,0.0078,0.1427,0.0078,0.214,0.0152
				c0.183,0.0183,0.3418,0.0861,0.5217,0.1119c-0.2747-0.0706-0.5324-0.1624-0.7658-0.2725c0.14-0.0353,0.2904-0.0533,0.4422-0.0438
				c-0.2073-0.0127-0.3494-0.1426-0.5561-0.155c0.0481-0.0018,0.0962-0.0085,0.1413-0.0198
				c-0.1099-0.0156-0.1801-0.1171-0.2323-0.1285c0.1372-0.031,0.3007-0.0675,0.4448-0.0233
				c0.0011-0.0191,0.0028-0.0385,0.0045-0.0572c0.0946,0.0182,0.2173,0.0496,0.2944,0.108
				c0.0011-0.0163-0.0056-0.0328-0.0191-0.0477c0.3945,0.0928,0.9699,0.4317,1.0753,0.4752
				c-0.214-0.176-0.5388-0.3978-0.2339-0.5214c0.031,0.0174,0.2269,0.0207,0.346,0.0895c0.0524,0.0303,0.1656,0.1061,0.1773,0.167
				c-0.0053-0.0542,0.0476-0.1098,0.1307-0.1351c0.2464,0.1851,0.0952,0.4074,0.2211,0.4198c0.0331-0.1,0.0514-0.1867,0.1773-0.1186
				c0.1004,0.0716,0.1669,0.0989,0.2395,0.2129c-0.0425-0.1397-0.2467-0.3892-0.1512-0.4498
				c0.0504,0.0214,0.0989,0.0497,0.1407,0.0861c-0.1069-0.1765,0.1054-0.1457,0.2615-0.3276
				c-0.0078,0.03,0.0253,0.0576,0.0535,0.083c0.0514,0.048,0.0895,0.101,0.1112,0.1557c0.0334-0.0286,0.0734-0.0547,0.119-0.077
				c0.0164,0.1031,0.0371,0.2058,0.0535,0.3089c0.0181-0.0976,0.2299-0.1147,0.294-0.18c0.2353,0.1784-0.0009,0.3931-0.0569,0.4978
				c-0.0253,0.048-0.0366,0.0999-0.09,0.1394c0.0322-0.0187,0.0723-0.0364,0.0996-0.0572c0.5161-0.39,0.2887-0.1628,0.6457-0.2817
				c0.0651,0.0833,0.0882,0.1818,0.0277,0.2665c0.0353-0.0071,0.0719-0.0106,0.1084-0.012
				c0.0656,0.0172-0.1771,0.1132-0.3667,0.2514c-0.5125,0.3746-1.257,0.3439-0.2771,0.8021
				c0.0039,0.0018,0.3116,0.1358,0.3177,0.1384C37.2125,18.6227,37.2651,18.6444,37.1998,18.6593z M36.6631,18.3861
				c0.1589,0.0847,0.3276,0.1631,0.5047,0.2344c-0.2577-0.1237-0.8769-0.4741-0.8797-0.4748
				c0.0928-0.0704,0.1193-0.1789,0.088-0.2877c0.2725-0.1271,0.6396-0.3267,0.8612-0.5281
				c-0.3624,0.2284-0.6561,0.393-0.8619,0.5264c-0.029-0.1002-0.028-0.0715-0.1033-0.1716c0.0512-0.07,0.0679-0.1553,0.0584-0.2337
				c0.0948-0.0393,0.175-0.1027,0.244-0.1793c0.0625-0.0694,0.1164-0.1617,0.1431-0.2263
				c-0.0727,0.0692-0.1229,0.1437-0.1853,0.2139c-0.0582,0.065-0.12,0.1292-0.2025,0.1864
				c-0.0052-0.0628-0.0214-0.125-0.0358-0.1861c-0.0404-0.1472-0.0809-0.2944-0.1384-0.4402
				c0.0185,0.1493,0.0553,0.2965,0.0915,0.4441c0.0408,0.1467,0.0808,0.2873,0.0212,0.4176
				c-0.1347-0.1347-0.3493-0.2416-0.3819-0.395c-0.0123,0.2609,0.7374,0.5232,0.3991,0.8589l-0.0165-0.0039
				c-0.2405-0.1778-0.5778-0.3669-0.8507-0.5285c-0.0065-0.1208-0.1906-0.3603-0.264-0.4564
				c0.2551-0.135,0.1392-0.1696,0.1605-0.286c-0.0704,0.0717,0.0104,0.133-0.1121,0.2281c-0.0182,0.0162-0.0364,0.0332-0.054,0.0505
				c-0.1283-0.1571-0.2705-0.3117-0.442-0.4543c0.1238,0.1391,0.6503,0.7319,0.7036,0.9136
				c-0.1114-0.0628-0.9294-0.5234-0.8083-0.4568c-0.2304-0.0926-0.6744-0.2711-0.923-0.3668
				c0.6891,0.2908,0.7563,0.3249,0.8858,0.3806c-0.0701-0.0081-0.1403-0.0155-0.2104-0.0244
				c-0.6484-0.083-0.695-0.1197-0.8172-0.0932c0,0,0.6704,0.1196,1.0417,0.1243c0.1006,0.0565,0.5769,0.3237,0.4763,0.2672
				c0.1001,0.0574,0.736,0.4217,0.6359,0.3643c0.1909,0.1081,0.391,0.2179,0.5711,0.3368
				c-0.3231-0.0536-0.9096,0.2904-1.2182,0.3375c0.1434-0.0157,0.4378-0.1196,0.5732-0.1681
				C36.349,18.0658,36.1985,18.1422,36.6631,18.3861 M35.3018,18.104c0.2701,0.0138,0.5389,0.0296,0.809,0.0399
				c-0.2389-0.0236-0.5378-0.0483-0.8317-0.0657c-0.1002-0.0606-0.2024-0.1522-0.4494-0.2538
				c0.1655,0.1339,0.3219,0.1963,0.422,0.2521c-0.7899-0.0496-1.1077-0.0029-1.4577-0.09c0.2853,0.0925,0.5744,0.0756,1.3432,0.1098
				c-0.1387,0.0492-0.4071,0.1336-0.5361,0.1423c0.111,0.0179,0.3875-0.033,0.5471-0.1416
				C35.1994,18.0991,35.2512,18.1016,35.3018,18.104 M34.4838,17.5374c0.3544,0.0526,0.7088,0.0996,1.0426,0.1875
				c-0.5839-0.2015-1.616-0.2412-2.0357-0.4476C33.5907,17.307,33.5496,17.3859,34.4838,17.5374"></path><g><path fill="#3F7337" d="M27.561 16.8459c-.5935-.1563-1.6403-.2192-2.0221-.4396-.0046-.0026-.0091-.0053-.0136-.008C25.954 16.6091 26.9513 16.6355 27.561 16.8459zM28.1454 17.2649c-.3621-.0137-.6939-.0359-.9626-.047-.1522.1035-.4287.1607-.5471.1416.1316-.0089.3916-.0909.5361-.1423-.7592-.0338-1.0575-.0172-1.3432-.1098.3473.0865.655.0396 1.4577.09-.1003-.0559-.2561-.1179-.422-.2521.25.1029.3479.1924.4494.2538C27.6077 17.2166 27.9087 17.2415 28.1454 17.2649z"></path><path fill="#3F7337" d="M29.2719,16.4508c-0.2217,0.2014-0.5887,0.401-0.8612,0.5281c0.0314,0.109,0.0046,0.2174-0.088,0.2877
				c0.0028,0.0007,0.622,0.3511,0.8797,0.4748c-1.1006-0.443-0.6669-0.6053-1.5504-0.311
				c-0.1354,0.0484-0.4298,0.1524-0.5732,0.1681c0.3245-0.0495,0.8925-0.3915,1.2182-0.3375
				c-0.2253-0.1487-0.6671-0.3931-1.207-0.7011l-0.1571-0.0921l-0.1608-0.0886l-0.1583-0.0865
				c-0.5716-0.0071-0.884-0.1373-1.0417-0.1243c0.1279-0.0277,0.1706,0.0104,0.8172,0.0932
				c0.0701,0.0088,0.1402,0.0163,0.2104,0.0244l-0.1668-0.0731c-0.0547-0.025-0.6808-0.2913-0.7191-0.3075
				c0.2486,0.0957,0.4996,0.1885,0.7415,0.2902l0.1815,0.0766l0.165,0.0883l0.1639,0.089l0.1583,0.0907l0.321,0.1889
				c-0.0536-0.1828-0.5895-0.7854-0.7036-0.9136c0.1714,0.1426,0.3137,0.2972,0.442,0.4543
				c0.2001-0.1969,0.0981-0.2093,0.166-0.2785c-0.0214,0.1165,0.0946,0.1509-0.1605,0.286c0.0735,0.0962,0.2575,0.3356,0.264,0.4564
				c0.2755,0.1631,0.6104,0.3508,0.8507,0.5285l0.0165,0.0039c0.3176-0.3152-0.4097-0.6359-0.3991-0.8589
				c0.0328,0.154,0.2467,0.2598,0.3819,0.395c0.0952-0.2085-0.0557-0.4022-0.1127-0.8617c0.0562,0.1425,0.1623,0.4836,0.1742,0.6263
				c0.1858-0.1287,0.2716-0.2898,0.3878-0.4003c-0.0712,0.172-0.2171,0.3351-0.3872,0.4056
				c0.0095,0.0784-0.0072,0.1637-0.0584,0.2337c0.0756,0.1005,0.0742,0.071,0.1033,0.1716
				C28.5793,16.8675,28.9397,16.6602,29.2719,16.4508z"></path><path fill="#589441" d="M29.2665,17.7503c-0.003,0.0123-0.0121,0.0254-0.0321,0.03c-0.0231,0.0057-0.0476-0.0021-0.0683-0.0099
				c-0.0519-0.0187-0.1044-0.0378-0.1533-0.0597c-0.0819-0.0378-0.0921-0.0466-0.6706-0.3611
				c-0.3075,0.0811-0.474,0.3057-0.8006,0.3647c-0.3433,0.0619-0.6334-0.0861-0.738-0.1038c0.0736-0.0251,0.1497-0.048,0.227-0.0688
				l-0.0116-0.0131c0.0626-0.0293,0.1252-0.0593,0.1939-0.0837c-0.3261,0.0675-1.1983-0.1177-1.5193-0.1966l-0.0177-0.0025
				c0.0329-0.0049,0.0658-0.0106,0.0968-0.0187c-0.0844-0.0558-0.1469-0.1229-0.1809-0.1945
				c0.0913-0.0233,0.1998-0.0184,0.2835,0.0138c0.0595-0.0346,0.1459-0.0522,0.2301-0.0473
				c-0.1299-0.085-0.0394-0.1378,0.0657-0.1345c0.093,0.0023,0.1909,0.0445,0.5236,0.1535c-0.1-0.0395-0.2407-0.1735-0.1413-0.229
				c-0.2213-0.003-0.7152-0.0586-0.8166-0.1172c-0.0074-0.0043-0.0136-0.0092-0.0179-0.0148
				c0.039-0.0035,0.0786-0.0067,0.1176-0.0102c-0.2037,0.005-0.4307-0.1804-0.4475-0.2471c-0.0093-0.0378-0.0083-0.071-0.039-0.1049
				c0.0707,0.0078,0.1427,0.0078,0.214,0.0152c0.183,0.0183,0.3418,0.0861,0.5217,0.1119
				c-0.2747-0.0706-0.5324-0.1624-0.7658-0.2725c0.14-0.0353,0.2904-0.0533,0.4422-0.0438
				c-0.2073-0.0127-0.3494-0.1426-0.5561-0.155c0.0481-0.0018,0.0962-0.0085,0.1413-0.0198
				c-0.1099-0.0156-0.1801-0.1171-0.2323-0.1285c0.1372-0.031,0.3007-0.0675,0.4448-0.0233
				c0.0011-0.0191,0.0028-0.0385,0.0045-0.0572c0.0946,0.0182,0.2173,0.0496,0.2944,0.108
				c0.0012-0.0163-0.0056-0.0328-0.0191-0.0477c0.4475,0.1053,0.919,0.4108,1.0753,0.4752
				c-0.2337-0.1922-0.5313-0.4008-0.2339-0.5214c0.1006,0.0565,0.1998-0.0232,0.4226,0.1405
				c0.0462,0.0347,0.0925,0.0731,0.1008,0.116c-0.0053-0.0542,0.0476-0.1098,0.1307-0.1351
				c0.0649,0.0487,0.1109,0.1063,0.1332,0.1663c0.0317,0.0851,0.0037,0.2452,0.0879,0.2535c0.0331-0.1,0.0519-0.1865,0.1773-0.1186
				c0.004,0.0022,0.008,0.0045,0.0119,0.0068c0.1006,0.0581,0.1785,0.129,0.2276,0.2061c-0.0425-0.1397-0.2468-0.3892-0.1512-0.4498
				c0.0504,0.0214,0.0989,0.0497,0.1407,0.0861c-0.1075-0.1775,0.1058-0.1461,0.2615-0.3276
				c-0.0078,0.03,0.0253,0.0576,0.0535,0.083c0.0514,0.048,0.0895,0.101,0.1112,0.1557c0.0334-0.0286,0.0735-0.0547,0.119-0.077
				c0.0164,0.1031,0.0371,0.2058,0.0535,0.3089c0.0183-0.0986,0.2298-0.1146,0.294-0.18c0.2358,0.1788-0.0032,0.3974-0.0569,0.4978
				c-0.0253,0.048-0.0366,0.0999-0.09,0.1394c0.1247-0.0725-0.0007,0.0186,0.2944-0.2044c0.0334-0.0258,0.0686-0.0519,0.1148-0.0696
				c0.0991-0.0378,0.2332-0.0307,0.3361-0.065c0.0651,0.0833,0.0882,0.1818,0.0277,0.2665c0.0353-0.0071,0.0719-0.0106,0.1084-0.012
				c0.0265,0.0069,0.0284,0.0135,0.0251,0.0187c-0.0036,0.007-0.0133,0.012-0.0224,0.0166
				c-0.1337,0.0678-0.2589,0.1356-0.3693,0.216c-0.511,0.3735-1.26,0.3425-0.2771,0.8021c0.0991,0.0458,0.2154,0.0791,0.3051,0.1308
				c0.0043,0.0025,0.0085,0.005,0.0126,0.0075C29.2566,17.727,29.2688,17.7376,29.2665,17.7503z M28.6977,17.5071
				c0.1589,0.0847,0.3276,0.1631,0.5047,0.2344c-0.2577-0.1237-0.8769-0.4741-0.8797-0.4748
				c0.0928-0.0704,0.1193-0.1789,0.088-0.2877c0.2725-0.1271,0.6396-0.3267,0.8612-0.5281
				c-0.3624,0.2284-0.6561,0.393-0.8619,0.5264c-0.029-0.1002-0.028-0.0715-0.1033-0.1716c0.0512-0.07,0.0679-0.1553,0.0584-0.2337
				c0.1699-0.0705,0.3159-0.2334,0.3872-0.4056c-0.126,0.1198-0.2006,0.2707-0.3878,0.4003
				c-0.0118-0.1425-0.1179-0.4835-0.1742-0.6263c0.057,0.4598,0.2078,0.6535,0.1127,0.8617
				c-0.1347-0.1347-0.3493-0.2416-0.3819-0.395c-0.0116,0.2452,0.724,0.5366,0.3991,0.8589l-0.0165-0.0039
				c-0.2405-0.1778-0.5778-0.3669-0.8507-0.5285c-0.0065-0.1208-0.1906-0.3603-0.264-0.4564
				c0.2551-0.135,0.1392-0.1696,0.1605-0.286c-0.0987,0.1007,0.0354,0.1137-0.1121,0.2281
				c-0.0182,0.0162-0.0364,0.0332-0.054,0.0505c-0.1283-0.1571-0.2705-0.3117-0.442-0.4543
				c0.1238,0.1391,0.6503,0.7319,0.7036,0.9136l-0.321-0.1889l-0.1583-0.0907l-0.1639-0.0889l-0.165-0.0883l-0.1815-0.0766
				c-0.2419-0.1017-0.4929-0.1945-0.7415-0.2902c0.0383,0.0162,0.6644,0.2825,0.7191,0.3075l0.1668,0.0731
				c-0.0701-0.0081-0.1403-0.0155-0.2104-0.0244c-0.6265-0.0801-0.6903-0.1207-0.8172-0.0932c0,0,0.6704,0.1196,1.0417,0.1243
				l0.1583,0.0865l0.1608,0.0886l0.1571,0.0921c0.7285,0.4156,1.0088,0.5703,1.207,0.7011
				c-0.3268-0.0542-0.8938,0.288-1.2182,0.3375c0.1434-0.0157,0.4378-0.1196,0.5732-0.1681
				C28.3836,17.1868,28.2331,17.2632,28.6977,17.5071 M27.3364,17.225c0.2701,0.0138,0.5389,0.0296,0.809,0.0399
				c-0.2389-0.0236-0.5378-0.0483-0.8317-0.0657c-0.1002-0.0606-0.2024-0.1522-0.4494-0.2538
				c0.1655,0.1339,0.3219,0.1963,0.422,0.2521c-0.7899-0.0496-1.1077-0.0029-1.4577-0.09c0.2853,0.0925,0.5744,0.0756,1.3432,0.1098
				c-0.1464,0.052-0.4051,0.1334-0.5361,0.1423c0.1151,0.0186,0.3909-0.0353,0.5471-0.1416
				C27.234,17.2201,27.2858,17.2226,27.3364,17.225 M26.5184,16.6584c0.3544,0.0526,0.7088,0.0996,1.0426,0.1875
				c-0.5807-0.2004-1.6153-0.2409-2.0357-0.4476C25.6253,16.428,25.5842,16.5069,26.5184,16.6584"></path></g><g><polygon fill="#F3AE1C" points="45.244 11.767 44.627 10.662 45.968 10.689 46.586 11.794"></polygon><polygon fill="#F59D20" points="44.551 12.923 43.933 11.818 44.627 10.662 45.244 11.767"></polygon><polygon fill="#F5861F" points="45.244 11.767 46.586 11.794 45.892 12.95 44.551 12.923"></polygon></g><g><polygon fill="#F3AE1C" points="31.431 16.14 30.814 15.035 32.155 15.062 32.773 16.166"></polygon><polygon fill="#F59D20" points="30.738 17.296 30.12 16.191 30.814 15.035 31.431 16.14"></polygon><polygon fill="#F5861F" points="31.431 16.14 32.773 16.166 32.079 17.322 30.738 17.296"></polygon></g><g><polygon fill="#F3AE1C" points="17.547 23.818 16.929 22.713 18.27 22.739 18.888 23.844"></polygon><polygon fill="#F59D20" points="16.853 24.974 16.235 23.869 16.929 22.713 17.547 23.818"></polygon><polygon fill="#F5861F" points="17.547 23.818 18.888 23.844 18.194 25 16.853 24.974"></polygon></g><g><polygon fill="#F3AE1C" points="15.599 16.692 14.981 15.588 16.322 15.614 16.94 16.719"></polygon><polygon fill="#F59D20" points="14.905 17.848 14.288 16.744 14.981 15.588 15.599 16.692"></polygon><polygon fill="#F5861F" points="15.599 16.692 16.94 16.719 16.246 17.875 14.905 17.848"></polygon></g><g><polygon fill="#686868" points="22.346 16.834 22.345 17.527 22.34 17.781 22.342 17.088"></polygon><path fill="#686868" d="M22.3398,17.8164l0.002-0.6929c0-0.0118,0.0002-0.0237,0.0006-0.0356l-0.002,0.6929
				C22.3401,17.7927,22.3399,17.8046,22.3398,17.8164z"></path><path fill="#73AE43" d="M21.4998,17.3199l-0.002,0.6929c-1.0981-0.0471-2.1165-0.3166-2.9088-0.774l0.002-0.6929
				C19.3833,17.0034,20.4017,17.2728,21.4998,17.3199z"></path><path fill="#589441" d="M29.3363,19.0023l-0.002,0.6929c-1.7846,1.0371-4.6946,1.037-6.4908,0
				c-0.7923-0.4574-1.2608-1.0465-1.3457-1.6824l0.002-0.6929c0.0849,0.6359,0.5534,1.2249,1.3457,1.6824
				C24.6417,20.0393,27.5518,20.0394,29.3363,19.0023z"></path><path fill="#80BC41" d="M29.3363,19.0023c-1.7846,1.0371-4.6946,1.0371-6.4908,0c-0.7923-0.4574-1.2608-1.0465-1.3457-1.6824
				c-1.0981-0.0471-2.1165-0.3165-2.9088-0.774l0.5985-0.3478c0.7272,0.4198,1.6913,0.6454,2.7188,0.6392l0.4382-0.0032
				l-0.0041,0.2538c-0.0182,0.589,0.3744,1.1467,1.1016,1.5665c1.4598,0.8428,3.8398,0.8428,5.29,0L29.3363,19.0023z"></path></g><g><circle cx="34.253" cy="14.607" r=".341" fill="#3D3D3D"></circle><path fill="#4F4D4D" d="M34.3874,14.3445c-0.0099-0.0008-0.0197-0.0015-0.0296-0.0015c-0.1883,0-0.3402,0.1526-0.3402,0.3409
				c0,0.0425,0.0076,0.0828,0.022,0.12c-0.0433-0.0516-0.0691-0.1177-0.0691-0.1898c0-0.1632,0.1329-0.2961,0.2961-0.2961
				C34.3099,14.3179,34.3509,14.327,34.3874,14.3445z"></path><path fill="#3D3D3D" d="M37.3112,16.2249c0,0.4514-0.6828,0.452-0.6828,0c0-0.1886,0.1529-0.3414,0.3414-0.3414
				S37.3112,16.0363,37.3112,16.2249z"></path><path fill="#4F4D4D" d="M37.1046,15.9621c-0.0099-0.0008-0.0197-0.0015-0.0296-0.0015c-0.1883,0-0.3402,0.1526-0.3402,0.3409
				c0,0.0425,0.0076,0.0828,0.022,0.12c-0.0433-0.0516-0.0691-0.1177-0.0691-0.1898c0-0.1632,0.1329-0.2961,0.2961-0.2961
				C37.0271,15.9355,37.0681,15.9446,37.1046,15.9621z"></path><circle cx="36.404" cy="14.173" r=".341" fill="#3D3D3D"></circle><path fill="#4F4D4D" d="M36.5389,13.9102c-0.0099-0.0008-0.0197-0.0015-0.0296-0.0015c-0.1883,0-0.3401,0.1526-0.3401,0.3409
				c0,0.0425,0.0076,0.0828,0.022,0.12c-0.0433-0.0516-0.0691-0.1177-0.0691-0.1898c0-0.1632,0.1329-0.2961,0.2961-0.2961
				C36.4614,13.8836,36.5024,13.8927,36.5389,13.9102z"></path></g><g><circle cx="10.082" cy="18.07" r=".341" fill="#3D3D3D"></circle><path fill="#4F4D4D" d="M10.2171,17.8068c-0.0099-0.0008-0.0197-0.0015-0.0296-0.0015c-0.1883,0-0.3402,0.1526-0.3402,0.3409
				c0,0.0425,0.0076,0.0828,0.022,0.12c-0.0433-0.0516-0.0691-0.1177-0.0691-0.1898c0-0.1632,0.1329-0.2961,0.2961-0.2961
				C10.1397,17.7802,10.1807,17.7893,10.2171,17.8068z"></path><circle cx="12.8" cy="19.687" r=".341" fill="#3D3D3D"></circle><path fill="#4F4D4D" d="M12.9343,19.4244c-0.0099-0.0008-0.0197-0.0015-0.0296-0.0015c-0.1883,0-0.3402,0.1526-0.3402,0.3409
				c0,0.0425,0.0076,0.0828,0.022,0.12c-0.0433-0.0516-0.0691-0.1177-0.0691-0.1898c0-0.1632,0.1329-0.2961,0.2961-0.2961
				C12.8569,19.3978,12.8979,19.4069,12.9343,19.4244z"></path><circle cx="12.234" cy="17.635" r=".341" fill="#3D3D3D"></circle><path fill="#4F4D4D" d="M12.3686,17.3725c-0.0099-0.0008-0.0197-0.0015-0.0296-0.0015c-0.1883,0-0.3402,0.1526-0.3402,0.3409
				c0,0.0425,0.0076,0.0828,0.022,0.12c-0.0433-0.0516-0.0691-0.1177-0.0691-0.1898c0-0.1632,0.1329-0.2961,0.2961-0.2961
				C12.2912,17.3459,12.3322,17.355,12.3686,17.3725z"></path></g><g><path fill="#3D3D3D" d="M31.7217,24.4808c-0.4514,0-0.452-0.6828,0-0.6828C32.1731,23.798,32.1737,24.4808,31.7217,24.4808z"></path><path fill="#4F4D4D" d="M31.8565,23.8765c-0.0099-0.0008-0.0197-0.0015-0.0296-0.0015c-0.2423,0-0.4019,0.2449-0.3181,0.4609
				c-0.1602-0.191-0.0245-0.4859,0.227-0.4859C31.779,23.85,31.82,23.8591,31.8565,23.8765z"></path><circle cx="34.439" cy="25.757" r=".341" fill="#3D3D3D"></circle><path fill="#4F4D4D" d="M34.5737,25.4941c-0.0099-0.0008-0.0197-0.0015-0.0296-0.0015c-0.1883,0-0.3402,0.1526-0.3402,0.3409
				c0,0.0425,0.0076,0.0828,0.022,0.12c-0.0433-0.0516-0.0691-0.1177-0.0691-0.1898c0-0.1632,0.1329-0.2961,0.2961-0.2961
				C34.4962,25.4675,34.5372,25.4767,34.5737,25.4941z"></path><circle cx="33.873" cy="23.705" r=".341" fill="#3D3D3D"></circle><path fill="#4F4D4D" d="M34.008,23.4422c-0.0099-0.0008-0.0197-0.0015-0.0296-0.0015c-0.1883,0-0.3402,0.1526-0.3402,0.3409
				c0,0.0425,0.0076,0.0828,0.022,0.12c-0.0433-0.0516-0.0691-0.1177-0.0691-0.1898c0-0.1632,0.1329-0.2961,0.2961-0.2961
				C33.9305,23.4156,33.9715,23.4248,34.008,23.4422z"></path></g><g><circle cx="17.013" cy="20.529" r=".341" fill="#3D3D3D"></circle><path fill="#4F4D4D" d="M17.1482,20.2657c-0.0099-0.0008-0.0197-0.0015-0.0296-0.0015c-0.1883,0-0.3402,0.1526-0.3402,0.3409
				c0,0.0425,0.0076,0.0828,0.022,0.12c-0.0433-0.0516-0.0691-0.1177-0.0691-0.1898c0-0.1632,0.1329-0.2961,0.2961-0.2961
				C17.0708,20.2391,17.1118,20.2482,17.1482,20.2657z"></path><path fill="#3D3D3D" d="M19.7306,22.4875c-0.1886,0-0.3414-0.1529-0.3414-0.3414c0-0.1886,0.1529-0.3414,0.3414-0.3414
				C20.182,21.8047,20.1826,22.4875,19.7306,22.4875z"></path><path fill="#4F4D4D" d="M19.8654,21.8832c-0.0099-0.0008-0.0197-0.0015-0.0296-0.0015c-0.1883,0-0.3402,0.1526-0.3402,0.3409
				c0,0.0425,0.0076,0.0828,0.022,0.12c-0.0433-0.0516-0.0691-0.1177-0.0691-0.1898c0-0.1632,0.1329-0.2961,0.2961-0.2961
				C19.788,21.8567,19.829,21.8658,19.8654,21.8832z"></path><circle cx="19.165" cy="20.094" r=".341" fill="#3D3D3D"></circle><path fill="#4F4D4D" d="M19.2997,19.8313c-0.0099-0.0008-0.0197-0.0015-0.0296-0.0015c-0.1883,0-0.3402,0.1526-0.3402,0.3409
				c0,0.0425,0.0076,0.0828,0.022,0.12c-0.0433-0.0516-0.0691-0.1177-0.0691-0.1898c0-0.1632,0.1329-0.2961,0.2961-0.2961
				C19.2223,19.8048,19.2633,19.8139,19.2997,19.8313z"></path></g><g><path fill="#3D3D3D" d="M23.1899,26.8081c-0.4514,0-0.452-0.6828,0-0.6828C23.6413,26.1253,23.642,26.8081,23.1899,26.8081z"></path><path fill="#4F4D4D" d="M23.3248,26.2039c-0.0099-0.0008-0.0197-0.0015-0.0296-0.0015c-0.2423,0-0.4019,0.2449-0.3181,0.4609
				c-0.1602-0.191-0.0245-0.4859,0.227-0.4859C23.2473,26.1773,23.2883,26.1864,23.3248,26.2039z"></path><path fill="#3D3D3D" d="M25.9071,28.4257c-0.4514,0-0.452-0.6828,0-0.6828C26.3585,27.7429,26.3591,28.4257,25.9071,28.4257z"></path><path fill="#4F4D4D" d="M26.0419,27.8215c-0.0099-0.0008-0.0197-0.0015-0.0296-0.0015c-0.2423,0-0.4019,0.2449-0.3181,0.4609
				c-0.1602-0.191-0.0245-0.4859,0.227-0.4859C25.9645,27.7949,26.0055,27.804,26.0419,27.8215z"></path><path fill="#3D3D3D" d="M25.3414,26.3738c-0.4514,0-0.452-0.6828,0-0.6828C25.7928,25.691,25.7934,26.3738,25.3414,26.3738z"></path><path fill="#4F4D4D" d="M25.4762,25.7696c-0.0099-0.0008-0.0197-0.0015-0.0296-0.0015c-0.2423,0-0.4019,0.2449-0.3181,0.4609
				C24.9261,25.9876,25.1979,25.6362,25.4762,25.7696z"></path></g><g><path fill="#3D3D3D" d="M38.6786,17.0699l-0.3778,0.9294c0.1045-0.2571,0.3801-0.4454,0.8019-0.5026
				c0.8272-0.1121,1.9145,0.3336,2.4209,0.9922c0.2528,0.3288,0.3154,0.6518,0.2118,0.9069l0.3778-0.9294
				c0.1037-0.255,0.041-0.5781-0.2118-0.9069c-0.5064-0.6586-1.5937-1.1043-2.4209-0.9922
				C39.0587,16.6245,38.7831,16.8128,38.6786,17.0699z"></path><path fill="#3D3D3D" d="M37.825,16.7158c-0.1597,0.6532-0.8791,1.2168-0.0597,2.2825c0.7593,0.9876,2.3883,1.66,3.6381,1.4906
				c0.6222-0.0843,1.0292-0.3641,1.1846-0.7466l0.3778-0.9294c-0.1555,0.3825-0.5625,0.6622-1.1846,0.7465
				c-1.2498,0.1694-2.8788-0.5031-3.6381-1.4906C37.765,17.5772,37.6705,17.096,37.825,16.7158z"></path><path fill="#686868" d="M42.6477,17.4584c0.7593,0.9876,0.3743,1.933-0.8665,2.1012c-1.2498,0.1694-2.8788-0.5031-3.6381-1.4906
					c-0.7596-0.9879-0.3746-1.9334,0.8752-2.1027C40.2591,15.798,41.8881,16.4705,42.6477,17.4584z M41.3243,18.9654
					c0.8272-0.1121,1.0832-0.7476,0.5771-1.4058c-0.5064-0.6586-1.5937-1.1043-2.4209-0.9922
					c-0.8362,0.1133-1.0976,0.7418-0.5912,1.4004C39.3955,18.626,40.4881,19.0787,41.3243,18.9654"></path></g><g><path fill="#E02426" d="M18.7858,21.032c-0.1779,0.1348-0.0827,0.2737,0.0246,0.3663c0.3029,0.2614,0.6168,0.5284,1.1177,0.6549
					c1.2443,0.3142,3.9247,2.2859,4.793,2.9444c0.1095,0.083,0.1869,0.236-0.0185,0.3409c-0.1439,0.0076-0.2258,0.031-0.3697,0.0386
					c-0.8643-0.4209-2.2854-0.3941-3.2219-0.7638c-0.3941-0.1555-1.1064-0.5269-1.7867,0.0091
					c-0.2214,0.1745-0.2462,0.3815-0.1364,0.5136c0.4098,0.4928,7.1249,1.5004,8.3022,2.1365
					c0.4863-0.2141,0.7454-0.5954,0.7232-0.8771c-0.0221-0.2816-0.2613-0.4869-0.4954-0.6831
					c-1.5691-1.3155-2.2692-1.9359-3.0613-2.4446c-0.9475-0.6084-2.0936-1.0998-2.8818-1.7984
					c1.7863-0.6645,2.5364,0.403,2.7616,0.4621c0.3425,0.0899,0.5249-0.1757,1.3846,0.3595
					c3.2281,2.0094,4.9405,2.4564,5.2511,2.7606c0.2951,0.2889,0.2089,0.754,0.5815,1.0001
					c0.3169,0.2093,0.9608,0.2106,1.5586,0.0032c0.5978-0.2074,1.1129-0.6108,1.2469-0.9765
					c0.0229-0.0626,0.0354-0.1254,0.0111-0.1758c-0.0399-0.0828-0.1709-0.1199-0.2914-0.1568
					c-1.5962-0.4892-2.2551-1.598-3.2976-2.456c-1.0054-0.8274-2.4033-1.4426-3.1761-2.3877
					c-0.0493-0.0603-0.0661-0.1654,0.0679-0.22c2.579,0.9694,4.9127,2.1238,6.968,3.4466c1.0745,0.6915,1.8283,0.9436,2.7578,0.267
					c0.4563-0.3322,0.9537-0.7244,0.9278-1.0526c-0.012-0.1521-0.1391-0.2639-0.2677-0.3686
					c-1.6722-1.3623-4.053-2.3378-5.3329-3.8992c1.6472,0.2816,2.2845,1.3583,3.9592,1.6119
					c0.1154,0.0175,0.2392,0.0309,0.3794,0.0092c0.285-0.0441,0.5533-0.2156,0.7843-0.3722c0.2831-0.1918,0.5865-0.4064,0.655-0.619
					c0.0383-0.119-0.0043-0.2213-0.0633-0.3127c-0.7987-1.2357-4.9053-0.9939-6.8124-2.0784
					c-0.3182-0.181-0.566-0.4097-0.9535-0.5417s-0.9726-0.1473-1.5146,0.0797c-0.7289,0.3052-1.0234,0.908-0.8104,1.263
					c0.213,0.355,0.7772,0.5278,1.3054,0.6998c1.6185,0.527,3.1149,1.1911,3.9087,2.217c0.2813,0.3636,0.4758,0.7734,0.9097,1.0567
					c-2.8097-0.9486-5.5253-1.9711-8.1413-3.0657c-0.185-0.0774-0.3909-0.1572-0.6731-0.1195
					c-0.4513,0.0603-0.8813,0.4083-0.9597,0.6835c-0.0784,0.2752,0.0948,0.4878,0.2771,0.6794
					c1.2802,1.3452,4.6178,3.4956,4.5239,3.7206c-1.8215-0.931-8.3769-3.7794-10.1979-2.8441
					c-0.3303,0.1697-0.5672,0.4195-0.598,0.6309"></path><path fill="#CF2027" d="M37.8372 18.3205c-.3149-.3116-3.1375-.1981-6.0393-1.7468-.1588-.0847-.417-.1627-.6603-.0305-.1524.0828-.202.2108-.154.2909s.1697.123.2919.1595c.6745.201 1.4888.2903 2.0614.5675.3435.1663.5919.3969.9771.533.4668.1648 2.4369.3588 2.8618.5981.0882.0497.1746.2914.2844.2941C37.9054 18.9972 37.9289 18.4113 37.8372 18.3205zM37.7925 22.2575c.0722.0611.1464.1271.1326.2194-.0108.072-.0741.1509-.1383.2266-1.1031 1.3-1.7646.6054-3.9673-.4539-.0948-.0456-.1946-.0991-.1801-.1901.8949.1309 1.7898.2619 2.6847.3928.5496.0804 1.0563-.276.3835-.5364-.7607-.2944-.4812-.8141-.1842-.733.2749.075.4535.3842.6267.5307C37.3641 21.8949 37.5783 22.0762 37.7925 22.2575zM25.5124 18.7579c-.1004-.1504-.1757-.3581.0839-.5377 1.1298.01 1.8945.4151 2.6078.8083.0631.0348.128.0715.144.1288.016.0572-.0333.1412-.1378.1877-.3958-.092-.7553-.2167-1.0705-.3715-.1582.0927-.2424.219-.2583.3258-.0425.2852.7727 1.4044.0514 1.0341-.2458-.1262-.4206-.3166-.5877-.487C26.014 19.5086 25.7626 19.1328 25.5124 18.7579zM31.4326 23.4202c1.0921 1.4901 2.7403 1.3245 2.5129 1.8352-.2964.6656-1.4907 1.1175-1.859.5681-.3646-.5439.3152-.8146-2.5574-1.7854-.39-.1318-.3381-.312-.1365-.4271.4739-.2708 1.1138.2903 1.4484.1864.5703-.1771-.4224-.6459.1962-.7865C31.2159 22.9702 31.3816 23.3505 31.4326 23.4202zM27.6449 26.1781c.1186.0762.2447.157.2455.2823.0009.1456-.2394.4083-.656.33-.5208-.0979-4.2197-.8589-3.3401-1.0471.9317-.1709 1.0776.1177 1.5662.1088.2544-.0047.6237-.1492.6759-.3145.0581-.1837-.2856-.2109-.4585-.309-.1162-.0659-.239-.4324.0913-.552.2372-.0859.4543.329.5244.402C26.6787 25.4798 27.1307 25.8477 27.6449 26.1781zM23.4432 23.2924c-.4824-.3574-2.0679-.7062-3.1747-2.5747-.0574-.0969-.0986-.2256.057-.3415-.2574.1599-.5092.3302-.6816.517-.1723.1867-.2551.394-.1511.5299.0532.0695.1505.1162.2453.1626 1.4881.7276 2.1175 1.3124 3.0117 1.9156.2389.1612.4866.3173.7531.4613.2264.1225.521.3451.855.3702.115-.1388-.3161-.3803-.4017-.4831C23.7968 23.6584 23.6617 23.4543 23.4432 23.2924zM23.8511 20.8946c-.9069-.2551-1.8138-.5102-2.7207-.7653-.4367-.1228-.4035.4061.5028.6438.8665.2272.8262.0439 2.2823.5265.126.0418 1.096.4823 1.2411.1173C25.249 21.1846 24.097 20.9638 23.8511 20.8946zM19.4528 25.1485c-.2506-.2799.388-.7779.8192-.2198.3495.4524 1.4353.4449 2.123.623.1857.0481.5881.2521.0312.289C22.3198 25.8477 19.7071 25.4325 19.4528 25.1485z"></path><path fill="#EE4541" d="M30.3619 20.3598c-.2171-.0833-.438-.1662-.5944-.2887-.0447-.035-.084-.0816-.0419-.1394.0665-.0913.2633-.1273.3979-.1267.3993.0017.715.1041.9934.2242.2702.1166.5145.2512.7584.3857.2049.1129 2.1133 1.0575 1.8088 1.2148-.332.1716-1.6434-.581-1.7933-.646C31.3925 20.7676 30.8827 20.5596 30.3619 20.3598zM27.0178 22.563c-.4602-.2705-2.3195-.7687-1.431-.9269.645-.1148 1.6788.8931 2.4656 1.197.4224.1632 1.2719.3112.8736.5008-.1387.066-.304-.0314-.3811-.0563C27.2808 22.8699 27.4914 22.8414 27.0178 22.563zM30.0977 22.7419c-.9241-.1043-.9813-.8162-1.5767-1.1509-.1708-.096-.3861-.1636-.5331-.2739-.1916-.1437-.2562-.3585-.1787-.5943.9861.3679.79.9109 2.5015 1.8147.3036.1603-.0689.3793-.5972.3501M31.4276 18.0865c-.2031-.0805-.407-.1613-.6395-.2181-.2615-.0639-.5575-.097-.8041-.1736-.3779-.1174-1.0416-.6002-1.0801-.8431-.0343-.2166.2723-.6726.4248-.7967.1043-.0849.2658-.1601.4022-.1636.1951-.0051.2392.1335.1737.2625-.0655.129-.2055.259-.2791.3885-.1103.1941-.0594.3706.0733.4977.1327.1271.3407.2113.5528.2887.5888.2147 1.2309.3897 1.7737.6391.0886.0407.4472.2038.143.3536C32.0089 18.3998 31.5369 18.1298 31.4276 18.0865z"></path></g><g><circle cx="24.552" cy="17.066" r=".341" fill="#3D3D3D"></circle><path fill="#4F4D4D" d="M24.6871,16.803c-0.0099-0.0008-0.0197-0.0015-0.0296-0.0015c-0.1883,0-0.3402,0.1526-0.3402,0.3409
				c0,0.0425,0.0076,0.0828,0.022,0.12c-0.0433-0.0516-0.0691-0.1177-0.0691-0.1898c0-0.1632,0.1329-0.2961,0.2961-0.2961
				C24.6097,16.7764,24.6507,16.7855,24.6871,16.803z"></path><circle cx="27.27" cy="18.683" r=".341" fill="#3D3D3D"></circle><path fill="#4F4D4D" d="M27.4043,18.4206c-0.0099-0.0008-0.0197-0.0015-0.0296-0.0015c-0.1883,0-0.3402,0.1526-0.3402,0.3409
				c0,0.0425,0.0076,0.0828,0.022,0.12c-0.0433-0.0516-0.0691-0.1177-0.0691-0.1898c0-0.1632,0.1329-0.2961,0.2961-0.2961
				C27.3269,18.394,27.3679,18.4031,27.4043,18.4206z"></path><path fill="#3D3D3D" d="M27.0452,16.6315c0,0.4514-0.6828,0.452-0.6828,0c0-0.1886,0.1529-0.3414,0.3414-0.3414
				C26.8924,16.2901,27.0452,16.443,27.0452,16.6315z"></path><path fill="#4F4D4D" d="M26.8386,16.3687c-0.0099-0.0008-0.0197-0.0015-0.0296-0.0015c-0.2423,0-0.4019,0.2449-0.3181,0.4609
				c-0.1602-0.191-0.0245-0.4859,0.227-0.4859C26.7612,16.3421,26.8022,16.3512,26.8386,16.3687z"></path></g></svg>